<?xml version="1.0" standalone="no"?>
<!DOCTYPE svg PUBLIC "-//W3C//DTD SVG 1.1//EN" "http://www.w3.org/Graphics/SVG/1.1/DTD/svg11.dtd" >
<svg xmlns="http://www.w3.org/2000/svg" xmlns:xlink="http://www.w3.org/1999/xlink" version="1.1">
<metadata>
Created by FontForge 20200314 at Mon Nov  7 21:16:24 2011
 By Unknown
Copyright (c) 2006-2008 Ascender Corporation. All rights reserved. 
</metadata>
<defs>
<font id="MayberryW02-Extrabold" horiz-adv-x="1309" >
  <font-face 
    font-family="MayberryW02-Extrabold"
    font-weight="700"
    font-stretch="normal"
    units-per-em="2048"
    panose-1="2 11 9 3 4 5 4 2 2 3"
    ascent="1515"
    descent="-533"
    x-height="1038"
    cap-height="1366"
    bbox="-381 -504 2345 1999"
    underline-thickness="102"
    underline-position="-205"
    unicode-range="U+000D-FB02"
  />
<missing-glyph horiz-adv-x="0" 
 />
    <glyph glyph-name=".notdef" horiz-adv-x="0" 
 />
    <glyph glyph-name=".null" horiz-adv-x="0" 
 />
    <glyph glyph-name="uni000D" unicode="&#xd;" horiz-adv-x="0" 
 />
    <glyph glyph-name="space" unicode=" " horiz-adv-x="586" 
 />
    <glyph glyph-name="exclam" unicode="!" horiz-adv-x="743" 
d="M582 1366l-99 -911h-225l-98 911h422zM207 0v332h328v-332h-328z" />
    <glyph glyph-name="quotedbl" unicode="&#x22;" horiz-adv-x="909" 
d="M541 895l-52 471h338l-51 -471h-235zM133 895l-51 471h338l-51 -471h-236z" />
    <glyph glyph-name="numbersign" unicode="#" horiz-adv-x="1718" 
d="M553 1028l102 338h295q-17 -59 -102 -338h231l105 338h295l-103 -338h271l-62 -254h-287l-57 -186h303l-59 -256h-324l-102 -332h-295l100 332h-231l-103 -332h-294l100 332h-268l59 256h291l55 186h-305l61 254h324zM713 588h233l55 186h-231z" />
    <glyph glyph-name="dollar" unicode="$" horiz-adv-x="1376" 
d="M594 1460h209v-112q97 -4 193.5 -20t162.5 -40v-260q-68 27 -169 47.5t-187 22.5v-258l39 -11q231 -68 332.5 -162t101.5 -249q0 -180 -115.5 -279.5t-357.5 -122.5v-155h-209v149q-107 0 -225.5 19.5t-186.5 50.5v256q73 -28 188 -51t224 -29v287l-33 12
q-233 63 -332.5 159t-99.5 240q0 322 465 383v123zM922 371q0 37 -26 60t-93 44v-205q119 21 119 101zM473 995q0 -32 26.5 -54.5t94.5 -39.5v178q-121 -15 -121 -84z" />
    <glyph glyph-name="percent" unicode="%" horiz-adv-x="1671" 
d="M705 991q0 -180 -89 -284.5t-245 -104.5q-153 0 -235.5 98t-82.5 279q0 198 86.5 300.5t247.5 102.5q153 0 235.5 -102t82.5 -289zM473 991q0 93 -20.5 143t-73.5 50q-48 0 -71 -45.5t-23 -151.5q0 -103 23 -146.5t71 -43.5q47 0 70.5 45t23.5 149zM1618 369
q0 -182 -89.5 -285.5t-244.5 -103.5q-153 0 -235 97t-82 279q0 198 86 301t247 103q152 0 235 -100.5t83 -290.5zM1386 369q0 93 -21.5 142.5t-72.5 49.5q-47 0 -70.5 -43.5t-23.5 -152.5q0 -105 22.5 -148t71.5 -43q48 0 71 46.5t23 148.5zM297 0l803 1366h274l-803 -1366
h-274z" />
    <glyph glyph-name="ampersand" unicode="&#x26;" horiz-adv-x="1436" 
d="M59 385q0 83 28.5 148t85 119.5t165.5 115.5q-60 65 -91.5 133t-31.5 150q0 151 117 243t309 92q185 0 295.5 -89t110.5 -240q0 -71 -27 -127.5t-77 -104.5t-157 -110l203 -213q35 63 68 168h336q-58 -214 -197 -389l264 -281h-411l-72 76q-165 -96 -402 -96
q-248 0 -382 105t-134 300zM438 385q0 -74 47.5 -119t128.5 -45q101 0 174 58l-253 284q-97 -77 -97 -178zM541 1059q0 -44 17 -80t54 -76q71 37 101 73.5t30 86.5q0 46 -28 71t-70 25q-48 0 -76 -27t-28 -73z" />
    <glyph glyph-name="quotesingle" unicode="'" horiz-adv-x="512" 
d="M137 895l-51 471h338l-51 -471h-236z" />
    <glyph glyph-name="parenleft" unicode="(" horiz-adv-x="958" 
d="M530 -317q-148 160 -233.5 382t-85.5 453q0 236 81 453t238 395h369q-293 -373 -293 -846q0 -469 289 -837h-365z" />
    <glyph glyph-name="parenright" unicode=")" horiz-adv-x="958" 
d="M745 518q0 -228 -83.5 -449t-233.5 -386h-367q289 365 289 837q0 475 -293 846h371q159 -183 238 -400.5t79 -447.5z" />
    <glyph glyph-name="asterisk" unicode="*" horiz-adv-x="793" 
d="M541 1382l-47 -237l213 102l77 -252l-229 -20l182 -180l-237 -138l-99 222l-96 -217l-227 133l172 180l-223 20l69 254l217 -104l-45 237h273z" />
    <glyph glyph-name="plus" unicode="+" horiz-adv-x="1434" 
d="M1239 516h-387v-387h-272v387h-387v272h387v388h272v-388h387v-272z" />
    <glyph glyph-name="comma" unicode="," horiz-adv-x="586" 
d="M39 -272q57 103 93 258t36 282h321q0 -130 -54.5 -280t-139.5 -260h-256z" />
    <glyph glyph-name="hyphen" unicode="-" horiz-adv-x="756" 
d="M102 397v273h551v-273h-551z" />
    <glyph glyph-name="period" unicode="." horiz-adv-x="541" 
d="M106 0v332h328v-332h-328z" />
    <glyph glyph-name="slash" unicode="/" horiz-adv-x="858" 
d="M530 1460h340l-544 -1777h-342z" />
    <glyph glyph-name="zero" unicode="0" horiz-adv-x="1284" 
d="M633 -23q-280 0 -412.5 167.5t-132.5 508.5q0 379 135.5 556t427.5 177q281 0 414 -166.5t133 -506.5q0 -377 -136 -556.5t-429 -179.5zM645 1110q-105 0 -148.5 -105t-43.5 -341q0 -215 41.5 -312.5t144.5 -97.5q104 0 149.5 106t45.5 345q0 216 -42.5 310.5
t-146.5 94.5z" />
    <glyph glyph-name="one" unicode="1" horiz-adv-x="1284" 
d="M932 0h-359v989q-74 -61 -188 -113.5t-190 -60.5v334q100 20 210.5 81t174.5 136h352v-1366z" />
    <glyph glyph-name="two" unicode="2" horiz-adv-x="1284" 
d="M1165 0h-1059v266l355 312q152 134 193 181.5t59 91t18 95.5q0 164 -209 164q-171 0 -354 -109v293q184 92 446 92q235 0 369.5 -101.5t134.5 -276.5q0 -122 -62 -230.5t-218 -238.5l-320 -265v-4h647v-270z" />
    <glyph glyph-name="three" unicode="3" horiz-adv-x="1284" 
d="M702 989q0 57 -50.5 96t-151.5 39q-90 0 -168 -14.5t-180 -54.5v274q205 57 415 57q242 0 374 -89.5t132 -254.5q0 -129 -79 -210t-218 -99v-14q170 -26 262 -112.5t92 -217.5q0 -203 -159.5 -306t-466.5 -103q-87 0 -191.5 13.5t-162.5 31.5v270q58 -21 155.5 -39
t169.5 -18q139 0 204.5 42.5t65.5 135.5q0 94 -84.5 133t-252.5 39l-89 -4v245q212 7 297.5 43t85.5 117z" />
    <glyph glyph-name="four" unicode="4" horiz-adv-x="1284" 
d="M647 1376h359v-852h237v-270h-237v-254h-328v254h-639v254l608 866v2zM678 524v486l-55 -99l-177 -272l-88 -115h320z" />
    <glyph glyph-name="five" unicode="5" horiz-adv-x="1284" 
d="M551 1094v-226q66 9 100 9q224 0 345.5 -107.5t121.5 -310.5q0 -228 -157.5 -353.5t-448.5 -125.5q-84 0 -195 12.5t-167 30.5v270q51 -19 144 -35t173 -16q270 0 270 202q0 191 -248 191q-137 0 -299 -27v758h900v-272h-539z" />
    <glyph glyph-name="six" unicode="6" horiz-adv-x="1284" 
d="M768 872q188 0 304 -117.5t116 -308.5q0 -218 -140 -342t-380 -124q-266 0 -419 176t-153 491q0 224 86 391.5t246.5 257.5t376.5 90q62 0 147 -12t150 -33v-268q-128 49 -291 49q-305 0 -348 -350q119 100 305 100zM647 236q84 0 131 52t47 154q0 82 -48.5 134.5
t-125.5 52.5q-66 0 -114.5 -29t-77.5 -70q9 -140 58 -217t130 -77z" />
    <glyph glyph-name="seven" unicode="7" horiz-adv-x="1284" 
d="M1190 1364v-215q-184 -240 -278.5 -417t-145.5 -358t-51 -374h-387q0 144 48.5 306.5t149.5 347.5t283 431h-684v279h1065z" />
    <glyph glyph-name="eight" unicode="8" horiz-adv-x="1284" 
d="M631 -20q-272 0 -404.5 102t-132.5 287q0 120 67 208.5t187 127.5q-205 89 -205 307q0 178 132 276t372 98q236 0 363 -96.5t127 -277.5q0 -228 -203 -305q122 -41 188 -127.5t66 -204.5q0 -188 -147 -291.5t-410 -103.5zM643 573q-94 0 -142 -51t-48 -133
q0 -77 47.5 -120.5t138.5 -43.5q94 0 141 46.5t47 129.5q0 78 -45.5 125t-138.5 47zM641 1147q-154 0 -154 -168q0 -156 150 -156q156 0 156 168q0 156 -152 156z" />
    <glyph glyph-name="nine" unicode="9" horiz-adv-x="1284" 
d="M502 485q-184 0 -297 112t-113 300q0 225 140.5 356t388.5 131q174 0 302.5 -78.5t196.5 -230.5t68 -358q0 -222 -87 -390t-253 -259t-393 -91q-68 0 -153.5 13.5t-143.5 32.5l2 268q126 -49 289 -49q154 0 246.5 88t121.5 260q-124 -105 -315 -105zM629 1128
q-84 0 -130 -54t-46 -156q0 -88 43.5 -139.5t121.5 -51.5q71 0 122.5 33t82.5 80q-12 135 -61.5 211.5t-132.5 76.5z" />
    <glyph glyph-name="colon" unicode=":" horiz-adv-x="541" 
d="M106 729v334h328v-334h-328zM106 0v332h328v-332h-328z" />
    <glyph glyph-name="semicolon" unicode=";" horiz-adv-x="586" 
d="M39 -272q57 103 93 258t36 282h321q0 -130 -54.5 -280t-139.5 -260h-256zM158 729v334h327v-334h-327z" />
    <glyph glyph-name="less" unicode="&#x3c;" horiz-adv-x="1434" 
d="M1239 1262v-322l-639 -297l639 -278v-320l-1046 485v232z" />
    <glyph glyph-name="equal" unicode="=" horiz-adv-x="1434" 
d="M1239 281h-1046v272h1046v-272zM1239 768h-1046v272h1046v-272z" />
    <glyph glyph-name="greater" unicode="&#x3e;" horiz-adv-x="1434" 
d="M1239 768v-231l-1046 -486v320l638 278l-638 297v322z" />
    <glyph glyph-name="question" unicode="?" horiz-adv-x="991" 
d="M571 455h-295v30q0 174 136 318q76 81 105.5 128.5t29.5 94.5q0 115 -160 115q-64 0 -146.5 -19.5t-150.5 -46.5v268q163 58 389 58q211 0 328 -90t117 -248q0 -90 -44 -166t-132 -149q-96 -79 -136.5 -141t-40.5 -134v-18zM256 0v332h344v-332h-344z" />
    <glyph glyph-name="at" unicode="@" horiz-adv-x="1745" 
d="M819 354q53 0 95.5 23t89.5 74v350q-38 14 -97 14q-105 0 -164 -74t-59 -202q0 -88 34.5 -136.5t100.5 -48.5zM1313 104q-88 0 -159 48t-91 112q-48 -74 -113.5 -111.5t-167.5 -37.5q-153 0 -249.5 118t-96.5 308q0 140 61.5 253.5t174.5 176.5t260 63q161 0 311 -49
v-530q0 -119 80 -119q52 0 86.5 79.5t34.5 246.5q0 259 -135 397.5t-391 138.5q-175 0 -315 -84.5t-217 -238.5t-77 -347q0 -276 147 -429.5t412 -153.5q235 0 461 69v-223q-212 -70 -471 -70q-244 0 -422 96t-274 280.5t-96 424.5q0 257 111 463t309 325.5t432 119.5
q226 0 401 -93.5t269.5 -267.5t94.5 -405q0 -155 -48 -284t-133.5 -202.5t-188.5 -73.5z" />
    <glyph glyph-name="A" unicode="A" horiz-adv-x="1403" 
d="M924 305h-457l-96 -305h-385l471 1366h489l471 -1366h-395zM829 602l-81 268l-52 203h-8l-49 -205l-78 -266h268z" />
    <glyph glyph-name="B" unicode="B" horiz-adv-x="1350" 
d="M877 418q0 88 -41.5 124t-126.5 36h-154v-318h133q103 0 146 36.5t43 121.5zM840 977q0 71 -38 99t-112 28h-135v-264h139q79 0 112.5 31.5t33.5 105.5zM1280 395q0 -191 -155 -293t-447 -102h-522v1366h538q537 0 537 -338q0 -118 -63 -198t-181 -109v-12
q145 -17 219 -93t74 -221z" />
    <glyph glyph-name="C" unicode="C" horiz-adv-x="1141" 
d="M713 -20q-318 0 -481.5 175t-163.5 509q0 212 82 377.5t235 255t352 89.5q216 0 361 -59v-309q-132 69 -275 69q-171 0 -261.5 -108t-90.5 -309q0 -182 83.5 -290t225.5 -108q82 0 155 18t167 66v-301q-152 -75 -389 -75z" />
    <glyph glyph-name="D" unicode="D" horiz-adv-x="1425" 
d="M1356 694q0 -203 -84 -362t-239.5 -245.5t-356.5 -86.5h-520v1366h532q312 0 490 -179t178 -493zM956 692q0 175 -76.5 274t-213.5 99h-111v-764h98q134 0 217.5 108.5t85.5 282.5z" />
    <glyph glyph-name="E" unicode="E" horiz-adv-x="1137" 
d="M156 1366h917v-272h-518v-258h459v-273h-459v-293h518v-270h-917v1366z" />
    <glyph glyph-name="F" unicode="F" horiz-adv-x="1090" 
d="M156 1366h878v-301h-479v-281h459v-272h-459v-512h-399v1366z" />
    <glyph glyph-name="G" unicode="G" horiz-adv-x="1354" 
d="M1243 90q-114 -59 -242 -84.5t-294 -25.5q-308 0 -473.5 180t-165.5 510q0 209 86.5 373t247.5 253.5t372 89.5q230 0 402 -65v-309q-139 75 -314 75q-190 0 -289.5 -107t-99.5 -310q0 -186 90 -293t244 -107q55 0 115 17v198h-217v271h538v-666z" />
    <glyph glyph-name="H" unicode="H" horiz-adv-x="1497" 
d="M1341 0h-399v532h-387v-532h-399v1366h399v-516h387v516h399v-1366z" />
    <glyph glyph-name="I" unicode="I" horiz-adv-x="711" 
d="M156 1366h399v-1366h-399v1366z" />
    <glyph glyph-name="J" unicode="J" horiz-adv-x="711" 
d="M55 -463q-92 0 -159 14v283q32 -8 77 -8q89 0 136 63t47 185v1292h399v-1327q0 -243 -129.5 -372.5t-370.5 -129.5z" />
    <glyph glyph-name="K" unicode="K" horiz-adv-x="1366" 
d="M557 659h-12l10 -262v-397h-399v1366h399v-475l-10 -154h12l381 629h430l-455 -655l469 -711h-442z" />
    <glyph glyph-name="L" unicode="L" horiz-adv-x="1075" 
d="M1042 0h-886v1366h399v-1065h487v-301z" />
    <glyph glyph-name="M" unicode="M" horiz-adv-x="1833" 
d="M528 0h-372v1366h438l182 -354l144 -318l135 312l194 360h428v-1366h-372v623l12 266l-80 -187l-178 -362h-273l-184 358l-88 193l14 -266v-625z" />
    <glyph glyph-name="N" unicode="N" horiz-adv-x="1575" 
d="M156 0v1366h405l494 -819h8l-19 301v518h375v-1366h-397l-504 831h-10l20 -303v-528h-372z" />
    <glyph glyph-name="O" unicode="O" horiz-adv-x="1468" 
d="M1399 700q0 -352 -173 -536t-499 -184q-315 0 -487 181t-172 507q0 349 177 533.5t507 184.5q307 0 477 -180.5t170 -505.5zM995 680q0 220 -63 325t-193 105q-128 0 -198 -111t-70 -317q0 -207 66 -317.5t190 -110.5q141 0 204.5 110t63.5 316z" />
    <glyph glyph-name="P" unicode="P" horiz-adv-x="1290" 
d="M555 479v-479h-399v1366h587q231 0 354.5 -108t123.5 -312q0 -141 -60.5 -248t-171.5 -163t-254 -56h-180zM829 926q0 75 -39.5 115t-113.5 40h-121v-317h88q186 0 186 162z" />
    <glyph glyph-name="Q" unicode="Q" horiz-adv-x="1468" 
d="M1399 700q0 -299 -125 -478t-361 -224q13 -72 53.5 -107.5t120.5 -35.5q118 0 224 51v-252q-121 -57 -287 -57q-199 0 -321 105t-146 294q-239 45 -364 220t-125 452q0 349 177 533.5t507 184.5q307 0 477 -180.5t170 -505.5zM995 680q0 220 -63 325t-193 105
q-128 0 -198 -111t-70 -317q0 -207 66 -317.5t190 -110.5q141 0 204.5 110t63.5 316z" />
    <glyph glyph-name="R" unicode="R" horiz-adv-x="1343" 
d="M555 508v-508h-399v1366h581q231 0 351 -109t120 -311q0 -133 -59 -230t-162 -149l367 -567h-420l-285 508h-94zM817 946q0 152 -153 152h-109v-322h84q178 0 178 170z" />
    <glyph glyph-name="S" unicode="S" horiz-adv-x="1210" 
d="M764 360q0 42 -26.5 68.5t-86 53.5t-162.5 59q-206 62 -301.5 166.5t-95.5 271.5q0 192 149 299.5t414 107.5q225 0 379 -59v-285q-173 78 -354 78q-108 0 -161.5 -23.5t-53.5 -74.5q0 -39 24 -63t82.5 -48.5t188.5 -64.5q194 -61 285.5 -164.5t91.5 -269.5
q0 -214 -153.5 -323t-453.5 -109q-270 0 -432 69v291q88 -40 201 -67t221 -27q126 0 185 28t59 86z" />
    <glyph glyph-name="T" unicode="T" horiz-adv-x="1190" 
d="M33 1366h1124v-301h-362v-1065h-400v1065h-362v301z" />
    <glyph glyph-name="U" unicode="U" horiz-adv-x="1448" 
d="M727 -20q-283 0 -434.5 132t-151.5 384v870h400v-860q0 -199 184 -199q85 0 133.5 51.5t48.5 147.5v860h400v-870q0 -243 -155.5 -379.5t-424.5 -136.5z" />
    <glyph glyph-name="V" unicode="V" horiz-adv-x="1319" 
d="M897 0h-475l-436 1366h391l223 -799l47 -229h6l47 229l224 799h409z" />
    <glyph glyph-name="W" unicode="W" horiz-adv-x="1847" 
d="M924 909l-68 -383l-125 -526h-432l-311 1366h372l140 -647l55 -357l59 375l138 629h331l148 -627l59 -377l60 353l127 651h383l-312 -1366h-432l-123 522z" />
    <glyph glyph-name="X" unicode="X" horiz-adv-x="1288" 
d="M877 702l415 -702h-430l-155 301l-64 150l-63 -154l-154 -297h-430q151 257 416 698l-383 668h430l129 -270l57 -146q16 35 29.5 72t30.5 72l133 272h422z" />
    <glyph glyph-name="Y" unicode="Y" horiz-adv-x="1225" 
d="M412 514q-185 364 -426 852h420l153 -373l57 -194l56 192l155 375h412l-428 -852v-514h-399v514z" />
    <glyph glyph-name="Z" unicode="Z" horiz-adv-x="1223" 
d="M104 1366h1029v-233l-574 -816h604v-317h-1100v252l568 797h-527v317z" />
    <glyph glyph-name="bracketleft" unicode="[" horiz-adv-x="928" 
d="M236 -317v1683h622v-242h-264v-1202h264v-239h-622z" />
    <glyph glyph-name="backslash" unicode="\" horiz-adv-x="856" 
d="M870 -317h-342l-544 1777h342z" />
    <glyph glyph-name="bracketright" unicode="]" horiz-adv-x="928" 
d="M68 -317v239h264v1202h-264v242h622v-1683h-622z" />
    <glyph glyph-name="asciicircum" unicode="^" horiz-adv-x="1229" 
d="M727 1366q136 -289 485 -1047h-319l-139 321l-140 318l-297 -639h-319l498 1047h231z" />
    <glyph glyph-name="underscore" unicode="_" horiz-adv-x="1044" 
d="M-10 -365v256h1065v-256h-1065z" />
    <glyph glyph-name="grave" unicode="`" horiz-adv-x="1024" 
d="M799 1208v-20h-273l-370 254v18h407z" />
    <glyph glyph-name="a" unicode="a" horiz-adv-x="1210" 
d="M815 0l-80 143h-10q-72 -93 -147 -128t-181 -35q-161 0 -248.5 89t-87.5 248q0 175 112.5 267t330.5 92q79 0 219 -10v28q0 73 -50 108.5t-161 35.5q-156 0 -332 -80v237q228 72 375 72q273 0 399.5 -102.5t126.5 -321.5v-643h-266zM723 473q-63 10 -105 10
q-99 0 -146.5 -38t-47.5 -119q0 -62 28.5 -92.5t77.5 -30.5q53 0 104.5 28t88.5 91v151z" />
    <glyph glyph-name="b" unicode="b" horiz-adv-x="1268" 
d="M496 147l-78 -147h-271v1460h359v-377l-10 -176h10q49 73 129 116.5t172 43.5q186 0 285.5 -141.5t99.5 -401.5q0 -251 -110 -397.5t-304 -146.5q-88 0 -152.5 43t-115.5 124h-14zM829 541q0 258 -153 258q-53 0 -97 -30.5t-73 -74.5v-321q21 -60 64.5 -97.5t91.5 -37.5
q75 0 121 72.5t46 230.5z" />
    <glyph glyph-name="c" unicode="c" horiz-adv-x="981" 
d="M649 1067q153 0 287 -31v-260q-88 29 -136 38t-114 9q-108 0 -170.5 -77.5t-62.5 -227.5q0 -138 58.5 -217.5t166.5 -79.5q82 0 135 11t123 38v-250q-152 -40 -305 -40q-281 0 -419 128.5t-138 397.5q0 277 145 419t430 142z" />
    <glyph glyph-name="d" unicode="d" horiz-adv-x="1268" 
d="M772 907l-12 195v358h358v-1460h-270l-76 147h-14q-99 -167 -285 -167q-195 0 -297 135t-102 395q0 254 109.5 405.5t295.5 151.5q88 0 154 -38.5t125 -121.5h14zM434 526q0 -147 47 -217.5t131 -70.5q41 0 84.5 38t63.5 86v324q-46 59 -80.5 82t-77.5 23
q-85 0 -126.5 -69.5t-41.5 -195.5z" />
    <glyph glyph-name="e" unicode="e" horiz-adv-x="1188" 
d="M461 428q15 -108 79.5 -157.5t182.5 -49.5q73 0 140 10.5t200 49.5v-250q-199 -51 -434 -51q-267 0 -411 136t-144 390q0 165 64.5 293t185 198t284.5 70q259 0 390.5 -134t131.5 -396v-109h-669zM641 825q-158 0 -184 -213h348q0 96 -45 154.5t-119 58.5z" />
    <glyph glyph-name="f" unicode="f" horiz-adv-x="887" 
d="M586 0h-359v795h-192v188l96 29l96 26v21q0 414 418 414q106 0 223 -19v-246q-76 21 -141 21q-69 0 -105 -40.5t-36 -111.5v-39h264v-243h-264v-795z" />
    <glyph glyph-name="g" unicode="g" horiz-adv-x="1268" 
d="M434 524q0 -134 36 -201t114 -67q51 0 97.5 28.5t78.5 77.5v324q-33 52 -75.5 80.5t-80.5 28.5q-170 0 -170 -271zM557 -492q-244 0 -399 56v260q70 -30 167.5 -48t170.5 -18q262 0 262 219l12 170h-10q-54 -87 -128 -127t-186 -40q-174 0 -273 141.5t-99 386.5
q0 264 108.5 411.5t306.5 147.5q82 0 147 -39.5t122 -120.5h12l70 131h278v-1061q0 -234 -135.5 -351.5t-425.5 -117.5z" />
    <glyph glyph-name="h" unicode="h" 
d="M1182 0h-359v639q0 84 -27 122t-91 38q-103 0 -199 -144v-655h-359v1460h359v-399l-10 -176h10q81 102 162.5 142t181.5 40q332 0 332 -379v-688z" />
    <glyph glyph-name="i" unicode="i" horiz-adv-x="653" 
d="M147 1460h359v-231h-359v231zM506 0h-359v1040h359v-1040z" />
    <glyph glyph-name="j" unicode="j" horiz-adv-x="653" 
d="M147 1040h359v-1155q0 -182 -88 -279.5t-250 -97.5q-157 0 -254 23v242q44 -11 113 -11q57 0 88.5 35.5t31.5 120.5v1122zM147 1460h359v-231h-359v231z" />
    <glyph glyph-name="k" unicode="k" horiz-adv-x="1190" 
d="M504 520h-10l12 -213v-307h-359v1460h359v-606l-12 -233h8l282 417h396l-349 -456l375 -582h-399z" />
    <glyph glyph-name="l" unicode="l" horiz-adv-x="741" 
d="M498 373q0 -133 127 -133q45 0 106 8v-248q-40 -9 -117 -14.5t-141 -5.5q-334 0 -334 335v1145h359v-1087z" />
    <glyph glyph-name="m" unicode="m" horiz-adv-x="1954" 
d="M1495 1067q332 0 332 -379v-688h-361v639q0 77 -20.5 112.5t-75.5 43.5q-54 0 -109 -38t-96 -102v-655h-358v639q0 78 -25 117t-84 39q-39 0 -98 -44t-94 -96v-655h-359v1038h267l80 -153h12q146 182 328 182q243 0 305 -197q148 197 356 197z" />
    <glyph glyph-name="n" unicode="n" 
d="M1182 0h-359v639q0 84 -26 122t-92 38q-103 0 -199 -144v-655h-359v1040h267l82 -155h10q81 102 162.5 142t181.5 40q332 0 332 -379v-688z" />
    <glyph glyph-name="o" unicode="o" horiz-adv-x="1235" 
d="M1161 522q0 -258 -144 -400t-413 -142q-259 0 -394.5 137t-135.5 389q0 275 141.5 418t417.5 143q259 0 393.5 -140t134.5 -405zM780 522q0 149 -38.5 225t-125.5 76q-163 0 -163 -305q0 -145 41 -221t122 -76q87 0 125.5 76t38.5 225z" />
    <glyph glyph-name="p" unicode="p" horiz-adv-x="1268" 
d="M494 131l12 -201v-422h-359v1530h275l72 -139h12q70 91 137.5 129.5t149.5 38.5q197 0 298 -133t101 -391q0 -255 -111.5 -409t-300.5 -154q-97 0 -154.5 32t-119.5 119h-12zM831 541q0 133 -44.5 200.5t-124.5 67.5q-44 0 -85.5 -34.5t-70.5 -90.5v-324
q63 -104 158 -104q167 0 167 285z" />
    <glyph glyph-name="q" unicode="q" horiz-adv-x="1268" 
d="M434 524q0 -134 36 -201t114 -67q51 0 97.5 28.5t78.5 77.5v324q-33 52 -75.5 80.5t-80.5 28.5q-170 0 -170 -271zM758 -492v480l12 159h-10q-52 -84 -125 -123.5t-189 -39.5q-175 0 -273.5 138t-98.5 386q0 264 108.5 411.5t306.5 147.5q82 0 147 -39.5t122 -120.5h12
l70 131h278v-1530h-360z" />
    <glyph glyph-name="r" unicode="r" horiz-adv-x="872" 
d="M735 752q-77 0 -131.5 -26t-97.5 -79v-647h-359v1040h285l60 -166h8q67 112 123 152.5t122 40.5q61 0 105 -12v-314q-57 11 -115 11z" />
    <glyph glyph-name="s" unicode="s" horiz-adv-x="1026" 
d="M94 731q0 158 121 247t344 89q186 0 342 -43v-238q-166 56 -299 56q-71 0 -112 -20t-41 -60q0 -23 14 -38t45 -28t194 -61q141 -37 204 -113.5t63 -191.5q0 -350 -502 -350q-205 0 -381 49v237q165 -59 324 -59q200 0 200 80q0 26 -13.5 41.5t-46.5 29.5t-163 50
q-157 40 -225 118.5t-68 204.5z" />
    <glyph glyph-name="t" unicode="t" horiz-adv-x="909" 
d="M588 1040h295v-245h-295v-420q0 -135 127 -135q61 0 141 14v-248q-121 -26 -291 -26q-336 0 -336 329v486h-196v188l198 57l88 252h269v-252z" />
    <glyph glyph-name="u" unicode="u" 
d="M1161 0h-268l-80 156h-10q-60 -72 -107 -105.5t-104.5 -52t-132.5 -18.5q-164 0 -248 89t-84 281v690h358v-632q0 -89 27 -128.5t92 -39.5q104 0 199 143v657h358v-1040z" />
    <glyph glyph-name="v" unicode="v" horiz-adv-x="1135" 
d="M1143 1040l-375 -1040h-401l-375 1040h360l168 -567q32 -112 41 -178h8q9 40 24.5 99t188.5 646h361z" />
    <glyph glyph-name="w" unicode="w" horiz-adv-x="1620" 
d="M1626 1040l-262 -1040h-426l-94 465l-31 207l-31 -211l-96 -461h-426l-266 1040h344l104 -555l35 -237h8l22 122l19 119l123 551h332l115 -551l39 -241h8l26 177l115 615h342z" />
    <glyph glyph-name="x" unicode="x" horiz-adv-x="1169" 
d="M1128 1038l-321 -495l356 -543h-366l-142 225l-69 125l-72 -125l-137 -225h-371l363 545l-322 493h369l116 -223l54 -115q89 185 114 230l58 108h370z" />
    <glyph glyph-name="y" unicode="y" horiz-adv-x="1135" 
d="M262 -492q-160 0 -272 25v248q105 -21 172 -21q153 0 200 138l27 69l-395 1073h360l168 -567q27 -90 41 -178h8q9 40 24.5 99t188.5 646h361l-410 -1112q-79 -215 -192.5 -317.5t-280.5 -102.5z" />
    <glyph glyph-name="z" unicode="z" horiz-adv-x="1014" 
d="M969 0h-914v154l457 641h-420v245h844v-159l-430 -637h463v-244z" />
    <glyph glyph-name="braceleft" unicode="{" horiz-adv-x="915" 
d="M862 -78v-239h-215q-164 0 -246 66t-82 206v274q0 98 -52.5 145.5t-162.5 47.5v203q104 0 159.5 48.5t55.5 143.5v277q0 140 82 206t246 66h215v-242h-69q-53 0 -84 -28t-31 -86v-248q0 -90 -55.5 -154t-147.5 -84v-4q95 -11 149 -70t54 -163v-248q0 -59 31 -88t84 -29
h69z" />
    <glyph glyph-name="bar" unicode="|" horiz-adv-x="623" 
d="M145 -492v1952h334v-1952h-334z" />
    <glyph glyph-name="braceright" unicode="}" horiz-adv-x="899" 
d="M121 -76q52 0 83.5 28t31.5 87v248q0 92 54 155.5t148 79.5v4q-91 14 -146.5 73t-55.5 163v248q0 58 -31.5 86t-83.5 28h-70v242h115q176 0 261.5 -26.5t126 -85t40.5 -160.5v-277q0 -192 215 -192v-203q-215 0 -215 -193v-274q0 -102 -40.5 -160.5t-126 -85
t-261.5 -26.5h-115v241h70z" />
    <glyph glyph-name="asciitilde" unicode="~" horiz-adv-x="1434" 
d="M940 430q-71 0 -130.5 25t-154.5 92q-69 51 -120 51q-41 0 -69.5 -42t-31.5 -126h-272q2 220 86.5 333.5t243.5 113.5q56 0 108 -16.5t158 -78.5q48 -31 85 -50t68 -19q48 0 66.5 40t19.5 124h275q-2 -217 -86.5 -332t-245.5 -115z" />
    <glyph glyph-name="uni00A0" unicode="&#xa0;" horiz-adv-x="586" 
 />
    <glyph glyph-name="exclamdown" unicode="&#xa1;" horiz-adv-x="743" 
d="M160 -334l98 912h225l99 -912h-422zM537 1032v-334h-328v334h328z" />
    <glyph glyph-name="cent" unicode="&#xa2;" horiz-adv-x="1376" 
d="M748 150q-259 12 -385.5 139.5t-126.5 384.5q0 262 129 403t383 156v139h194v-141l172 -25v-260q-87 31 -172 41v-592q73 9 172 43v-248q-88 -25 -172 -34v-156h-194v150zM616 688q0 -102 32.5 -174.5t99.5 -101.5v559q-132 -65 -132 -283z" />
    <glyph glyph-name="sterling" unicode="&#xa3;" horiz-adv-x="1376" 
d="M705 569q-37 -215 -130 -301h680v-268h-1056v270q150 98 159 299h-184v240h188v111q0 226 124 346t354 120q179 0 334 -45v-260q-143 60 -265 60q-97 0 -144.5 -50t-47.5 -161v-121h278v-240h-290z" />
    <glyph glyph-name="currency" unicode="&#xa4;" horiz-adv-x="1376" 
d="M162 662q0 137 69 264l-151 153l188 187l148 -148q131 80 284 80q148 0 275 -74l141 142l189 -187l-144 -143q76 -123 76 -274q0 -154 -80 -285l148 -148l-189 -186l-151 150q-118 -70 -265 -70q-149 0 -276 76l-156 -156l-188 186l158 158q-76 127 -76 275zM461 662
q0 -101 70 -170.5t169 -69.5q101 0 170.5 70t69.5 170t-69.5 169.5t-170.5 69.5q-100 0 -169.5 -69.5t-69.5 -169.5z" />
    <glyph glyph-name="yen" unicode="&#xa5;" horiz-adv-x="1376" 
d="M156 160v207h329v90h-329v225h245l-342 684h422l144 -383l9 -40l56 -208l55 208l13 40l145 383h412l-346 -684h245v-225h-329v-90h329v-207h-329v-160h-400v160h-329z" />
    <glyph glyph-name="brokenbar" unicode="&#xa6;" horiz-adv-x="621" 
d="M143 688v772h334v-772h-334zM143 -492v773h334v-773h-334z" />
    <glyph glyph-name="section" unicode="&#xa7;" horiz-adv-x="1155" 
d="M1057 614q0 -88 -37.5 -159.5t-97.5 -120.5q52 -42 79 -94.5t27 -126.5q0 -173 -123 -258.5t-375 -85.5q-223 0 -380 51v237q154 -65 333 -65q91 0 141 22.5t50 61.5q0 25 -18 45t-54 40t-174 75q-143 57 -206.5 131t-63.5 182q0 165 147 268q-119 98 -119 250
q0 157 121.5 245.5t339.5 88.5q173 0 344 -45v-234q-160 54 -295 54q-157 0 -157 -80q0 -36 41 -63.5t196 -84.5q141 -51 211 -133t70 -201zM745 561q0 36 -42 68t-148 71q-66 -34 -66 -102q0 -48 37 -78t158 -76q61 40 61 117z" />
    <glyph glyph-name="dieresis" unicode="&#xa8;" horiz-adv-x="1225" 
d="M174 1452h295v-264h-295v264zM600 1452h295v-264h-295v264z" />
    <glyph glyph-name="copyright" unicode="&#xa9;" horiz-adv-x="1638" 
d="M848 301q-207 0 -316.5 109t-109.5 317q0 205 120 328t322 123q137 0 238 -48v-200q-112 47 -197 47q-100 0 -156.5 -62t-56.5 -184q0 -114 54 -173.5t147 -59.5q60 0 108.5 15.5t102.5 41.5v-197q-114 -57 -256 -57zM70 729q0 201 101 376.5t274 275.5t374 100
q198 0 372.5 -99t276 -275.5t101.5 -377.5q0 -199 -99 -372.5t-272.5 -275t-378.5 -101.5q-206 0 -379 102.5t-271.5 275t-98.5 371.5zM219 729q0 -161 80.5 -300t220 -219.5t299.5 -80.5t299.5 81t220 220t80.5 299t-80 299.5t-219.5 220t-300.5 80.5q-160 0 -299.5 -80
t-220 -219.5t-80.5 -300.5z" />
    <glyph glyph-name="ordfeminine" unicode="&#xaa;" horiz-adv-x="885" 
d="M586 639q-14 25 -27.5 51t-32.5 47q-45 -59 -99 -85.5t-132 -26.5q-113 0 -174.5 62.5t-61.5 174.5q0 126 80.5 190t231.5 64q91 0 151 -6q0 64 -34.5 89.5t-110.5 25.5q-71 0 -129.5 -19t-106.5 -39v170q156 52 267 52q192 0 280 -73t88 -226v-451h-190zM317 870
q0 -42 20 -64t52 -22q35 0 71 19.5t62 62.5v105q-36 6 -71 6q-134 0 -134 -107z" />
    <glyph glyph-name="guillemotleft" unicode="&#xab;" horiz-adv-x="1108" 
d="M1016 59l-434 351v258l434 352v-309l-205 -172l205 -170v-310zM526 59l-434 351v258l434 352v-309l-204 -172l204 -170v-310z" />
    <glyph glyph-name="logicalnot" unicode="&#xac;" horiz-adv-x="1434" 
d="M1239 129h-270v387h-776v275h1046v-662z" />
    <glyph glyph-name="uni00AD" unicode="&#xad;" horiz-adv-x="756" 
d="M102 397v273h551v-273h-551z" />
    <glyph glyph-name="registered" unicode="&#xae;" horiz-adv-x="1638" 
d="M735 629v-310h-239v838h387q137 0 212.5 -68t75.5 -194q0 -170 -147 -236l201 -340h-262l-150 310h-78zM924 891q0 37 -20.5 60.5t-65.5 23.5h-103v-172h88q101 0 101 88zM70 729q0 201 101 376.5t274 275.5t374 100q198 0 372.5 -99t276 -275.5t101.5 -377.5
q0 -199 -99 -372.5t-272.5 -275t-378.5 -101.5q-206 0 -379 102.5t-271.5 275t-98.5 371.5zM219 729q0 -161 80.5 -300t220 -219.5t299.5 -80.5t299.5 81t220 220t80.5 299t-80 299.5t-219.5 220t-300.5 80.5q-160 0 -299.5 -80t-220 -219.5t-80.5 -300.5z" />
    <glyph glyph-name="macron" unicode="&#xaf;" horiz-adv-x="891" 
d="M0 1460v226h891v-226h-891z" />
    <glyph glyph-name="degree" unicode="&#xb0;" horiz-adv-x="834" 
d="M86 1100q0 138 97 235t235 97t235 -97t97 -235t-97 -235t-235 -97t-235 97t-97 235zM293 1100q0 -49 36.5 -86t88.5 -37q51 0 86 36.5t35 86.5q0 52 -35.5 87.5t-85.5 35.5q-52 0 -88.5 -36t-36.5 -87z" />
    <glyph glyph-name="plusminus" unicode="&#xb1;" horiz-adv-x="1434" 
d="M1239 -49h-1046v272h1046v-272zM1239 733h-387v-387h-272v387h-387v273h387v387h272v-387h387v-273z" />
    <glyph glyph-name="uni00B2" unicode="&#xb2;" horiz-adv-x="854" 
d="M78 578q0 82 65.5 170t165.5 147q101 68 137.5 114t36.5 101q0 38 -33.5 62t-93.5 24q-110 0 -231 -47v199q139 36 270 36q171 0 263 -62.5t92 -182.5q0 -94 -39.5 -163t-155.5 -147q-122 -73 -153.5 -95t-48.5 -40.5t-17 -34.5h442v-188h-700v107z" />
    <glyph glyph-name="uni00B3" unicode="&#xb3;" horiz-adv-x="854" 
d="M475 1120q0 35 -32 59.5t-97 24.5q-55 0 -103.5 -10t-127.5 -41v193q130 36 276 36q160 0 248 -58t88 -169q0 -78 -46 -128.5t-118 -65.5l-16 -17q105 -20 161 -76.5t56 -140.5q0 -134 -106 -202t-310 -68q-56 0 -127 9t-108 21v185q42 -14 109.5 -25.5t107.5 -11.5
q83 0 127.5 25t44.5 85q0 59 -54.5 84t-162.5 25q-28 0 -62 -6v172q134 4 193 26t59 74z" />
    <glyph glyph-name="acute" unicode="&#xb4;" horiz-adv-x="1300" 
d="M563 1460h408v-18l-371 -254h-272v20z" />
    <glyph glyph-name="uni00B5" unicode="&#xb5;" horiz-adv-x="1329" 
d="M506 -492h-359v1530h359v-632q0 -83 26.5 -124.5t94.5 -41.5q52 0 103.5 39t92.5 106v653h359v-1038h-271l-77 154h-11q-79 -96 -144.5 -132t-137.5 -36q-25 0 -49 4q9 -112 14 -150v-332z" />
    <glyph glyph-name="uni00B5" unicode="&#x3bc;" horiz-adv-x="1329" 
d="M506 -492h-359v1530h359v-632q0 -83 26.5 -124.5t94.5 -41.5q52 0 103.5 39t92.5 106v653h359v-1038h-271l-77 154h-11q-79 -96 -144.5 -132t-137.5 -36q-25 0 -49 4q9 -112 14 -150v-332z" />
    <glyph glyph-name="paragraph" unicode="&#xb6;" horiz-adv-x="1659" 
d="M911 -317h-315v782q-147 1 -264 57.5t-181.5 158.5t-64.5 234q0 220 155.5 335.5t460.5 115.5h854v-256h-141v-1427h-315v1427h-189v-1427z" />
    <glyph glyph-name="periodcentered" unicode="&#xb7;" horiz-adv-x="541" 
d="M106 477v332h328v-332h-328z" />
    <glyph glyph-name="cedilla" unicode="&#xb8;" horiz-adv-x="1024" 
d="M463 25h194l-75 -105q96 -12 143 -60.5t47 -144.5q0 -108 -78.5 -163.5t-228.5 -55.5q-103 0 -195 37v158q92 -39 160 -39q60 0 84.5 16.5t24.5 48.5q0 77 -234 103z" />
    <glyph glyph-name="uni00B9" unicode="&#xb9;" horiz-adv-x="854" 
d="M612 471h-237v645q-44 -35 -117.5 -68t-128.5 -40v219q69 14 140.5 53t113.5 90h229v-899z" />
    <glyph glyph-name="ordmasculine" unicode="&#xba;" horiz-adv-x="897" 
d="M829 1001q0 -181 -101.5 -279.5t-289.5 -98.5q-180 0 -276 95t-96 273q0 195 100 295t293 100q182 0 276 -98.5t94 -286.5zM559 1001q0 104 -26 156.5t-84 52.5q-113 0 -113 -209q0 -202 113 -202q58 0 84 50t26 152z" />
    <glyph glyph-name="guillemotright" unicode="&#xbb;" horiz-adv-x="1108" 
d="M582 367l204 172l-204 170v309l434 -352v-256l-434 -353v310zM92 367l205 172l-205 170v309l434 -352v-256l-434 -353v310z" />
    <glyph glyph-name="onequarter" unicode="&#xbc;" horiz-adv-x="1997" 
d="M591 471h-237v645q-44 -35 -117.5 -68t-128.5 -40v219q69 14 140.5 53t113.5 90h229v-899zM1541 346v301q-36 -63 -74.5 -121t-75.5 -116l-51 -64h201zM1766 903v-557h155v-184h-155v-160h-225v160h-424v172l403 567v2h246zM410 0l803 1366h274l-802 -1366h-275z" />
    <glyph glyph-name="onehalf" unicode="&#xbd;" horiz-adv-x="1997" 
d="M1190 109q0 82 65.5 170t165.5 147q101 68 137.5 114t36.5 101q0 38 -33.5 62t-93.5 24q-110 0 -231 -47v199q139 36 270 36q171 0 263 -62.5t92 -182.5q0 -94 -39.5 -163t-155.5 -147q-122 -73 -153.5 -95t-48.5 -40.5t-17 -34.5h442v-188h-700v107zM591 471h-237v645
q-44 -35 -117.5 -68t-128.5 -40v219q69 14 140.5 53t113.5 90h229v-899zM397 0l803 1366h274l-802 -1366h-275z" />
    <glyph glyph-name="threequarters" unicode="&#xbe;" horiz-adv-x="1997" 
d="M475 1120q0 35 -32 59.5t-97 24.5q-55 0 -103.5 -10t-127.5 -41v193q130 36 276 36q160 0 248 -58t88 -169q0 -78 -46 -128.5t-118 -65.5l-16 -17q105 -20 161 -76.5t56 -140.5q0 -134 -106 -202t-310 -68q-56 0 -127 9t-108 21v185q42 -14 109.5 -25.5t107.5 -11.5
q83 0 127.5 25t44.5 85q0 59 -54.5 84t-162.5 25q-28 0 -62 -6v172q134 4 193 26t59 74zM1545 346v301q-36 -63 -74.5 -121t-75.5 -116l-51 -64h201zM1770 903v-557h155v-184h-155v-160h-225v160h-424v172l403 567v2h246zM475 0l803 1366h274l-802 -1366h-275z" />
    <glyph glyph-name="questiondown" unicode="&#xbf;" horiz-adv-x="1006" 
d="M418 590h295v-31q0 -176 -135 -319q-77 -82 -106.5 -129.5t-29.5 -94.5q0 -56 42.5 -84t117.5 -28q65 0 149 20t148 45v-268q-166 -57 -389 -57q-210 0 -327 88.5t-117 249.5q0 90 45 166.5t131 147.5q94 78 135 140.5t41 132.5v21zM733 1044v-333h-344v333h344z" />
    <glyph glyph-name="Agrave" unicode="&#xc0;" horiz-adv-x="1403" 
d="M924 305h-457l-96 -305h-385l471 1366h489l471 -1366h-395zM829 602l-81 268l-52 203h-8l-49 -205l-78 -266h268zM905 1517v-20h-273l-370 254v18h407z" />
    <glyph glyph-name="Aacute" unicode="&#xc1;" horiz-adv-x="1403" 
d="M924 305h-457l-96 -305h-385l471 1366h489l471 -1366h-395zM829 602l-81 268l-52 203h-8l-49 -205l-78 -266h268zM745 1771h408v-18l-371 -254h-272v20z" />
    <glyph glyph-name="Acircumflex" unicode="&#xc2;" horiz-adv-x="1403" 
d="M924 305h-457l-96 -305h-385l471 1366h489l471 -1366h-395zM829 602l-81 268l-52 203h-8l-49 -205l-78 -266h268zM516 1769h368l207 -252v-20h-260l-131 127l-133 -127h-258v20z" />
    <glyph glyph-name="Atilde" unicode="&#xc3;" horiz-adv-x="1403" 
d="M924 305h-457l-96 -305h-385l471 1366h489l471 -1366h-395zM829 602l-81 268l-52 203h-8l-49 -205l-78 -266h268zM854 1503q-37 0 -71 11.5t-103 52.5q-31 19 -51.5 29t-43.5 10q-69 0 -73 -103h-177q2 148 57 228t154 80q49 0 84.5 -10t92.5 -46q30 -20 52.5 -33.5
t47.5 -13.5t44 26.5t19 76.5h183q-2 -153 -57.5 -230.5t-157.5 -77.5z" />
    <glyph glyph-name="Adieresis" unicode="&#xc4;" horiz-adv-x="1403" 
d="M924 305h-457l-96 -305h-385l471 1366h489l471 -1366h-395zM829 602l-81 268l-52 203h-8l-49 -205l-78 -266h268zM332 1759h295v-264h-295v264zM758 1759h295v-264h-295v264z" />
    <glyph glyph-name="Aring" unicode="&#xc5;" horiz-adv-x="1403" 
d="M924 305h-457l-96 -305h-385l471 1366h489l471 -1366h-395zM829 602l-81 268l-52 203h-8l-49 -205l-78 -266h268zM424 1497q0 114 80 192.5t192 78.5t192 -78.5t80 -192.5q0 -113 -79 -193.5t-193 -80.5q-113 0 -192.5 80t-79.5 194zM778 1497q0 35 -24 58.5t-58 23.5
q-35 0 -59.5 -24t-24.5 -58q0 -33 25 -58.5t59 -25.5q35 0 58.5 25t23.5 59z" />
    <glyph glyph-name="AE" unicode="&#xc6;" horiz-adv-x="1866" 
d="M-29 0l635 1366h1196v-272h-518v-258h459v-273h-459v-293h518v-270h-917v305h-377l-137 -305h-400zM637 602h248v475h-41z" />
    <glyph glyph-name="Ccedilla" unicode="&#xc7;" horiz-adv-x="1141" 
d="M592 -12q-259 31 -391.5 202.5t-132.5 473.5q0 212 82 377.5t235 255t352 89.5q123 0 192 -12.5t169 -46.5v-315q-73 41 -137.5 58t-137.5 17q-171 0 -261.5 -108t-90.5 -309q0 -180 84 -289t219 -109q96 0 164 18.5t164 78.5v-314q-127 -63 -318 -73l-43 -62
q96 -12 143.5 -60.5t47.5 -144.5q0 -108 -79 -163.5t-228 -55.5q-103 0 -195 37v158q92 -39 160 -39q59 0 83.5 17t24.5 48q0 77 -233 103z" />
    <glyph glyph-name="Egrave" unicode="&#xc8;" horiz-adv-x="1137" 
d="M156 1366h917v-272h-518v-258h459v-273h-459v-293h518v-270h-917v1366zM828 1517v-20h-273l-370 254v18h407z" />
    <glyph glyph-name="Eacute" unicode="&#xc9;" horiz-adv-x="1137" 
d="M156 1366h917v-272h-518v-258h459v-273h-459v-293h518v-270h-917v1366zM641 1769h408v-18l-371 -254h-272v20z" />
    <glyph glyph-name="Ecircumflex" unicode="&#xca;" horiz-adv-x="1137" 
d="M156 1366h917v-272h-518v-258h459v-273h-459v-293h518v-270h-917v1366zM437 1767h368l207 -252v-20h-260l-131 127l-133 -127h-258v20z" />
    <glyph glyph-name="Edieresis" unicode="&#xcb;" horiz-adv-x="1137" 
d="M156 1366h917v-272h-518v-258h459v-273h-459v-293h518v-270h-917v1366zM260 1759h295v-264h-295v264zM686 1759h295v-264h-295v264z" />
    <glyph glyph-name="Igrave" unicode="&#xcc;" horiz-adv-x="711" 
d="M156 1366h399v-1366h-399v1366zM568 1513v-20h-273l-370 254v18h407z" />
    <glyph glyph-name="Iacute" unicode="&#xcd;" horiz-adv-x="711" 
d="M156 1366h399v-1366h-399v1366zM387 1763h408v-18l-371 -254h-272v20z" />
    <glyph glyph-name="Icircumflex" unicode="&#xce;" horiz-adv-x="711" 
d="M156 1366h399v-1366h-399v1366zM174 1771h368l207 -252v-20h-260l-131 127l-133 -127h-258v20z" />
    <glyph glyph-name="Idieresis" unicode="&#xcf;" horiz-adv-x="711" 
d="M156 1366h399v-1366h-399v1366zM8 1761h295v-264h-295v264zM434 1761h295v-264h-295v264z" />
    <glyph glyph-name="Eth" unicode="&#xd0;" horiz-adv-x="1425" 
d="M1356 694q0 -203 -84 -362t-239.5 -245.5t-356.5 -86.5h-520v545h-138v270h138v551h532q312 0 490 -179t178 -493zM956 692q0 175 -76.5 274t-213.5 99h-111v-250h238v-270h-238v-244h98q134 0 217.5 108.5t85.5 282.5z" />
    <glyph glyph-name="Ntilde" unicode="&#xd1;" horiz-adv-x="1575" 
d="M156 0v1366h405l494 -819h8l-19 301v518h375v-1366h-397l-504 831h-10l20 -303v-528h-372zM977 1515q-37 0 -71 11.5t-103 52.5q-31 19 -51.5 29t-43.5 10q-69 0 -73 -103h-177q2 148 57 228t154 80q49 0 84.5 -10t92.5 -46q30 -20 52.5 -33.5t47.5 -13.5t44 26.5
t19 76.5h183q-2 -153 -57.5 -230.5t-157.5 -77.5z" />
    <glyph glyph-name="Ograve" unicode="&#xd2;" horiz-adv-x="1468" 
d="M1399 700q0 -352 -173 -536t-499 -184q-315 0 -487 181t-172 507q0 349 177 533.5t507 184.5q307 0 477 -180.5t170 -505.5zM995 680q0 220 -63 325t-193 105q-128 0 -198 -111t-70 -317q0 -207 66 -317.5t190 -110.5q141 0 204.5 110t63.5 316zM949.539 1510.04
v-19.7197h-270.451l-366.545 250.435v17.7471h403.199z" />
    <glyph glyph-name="Oacute" unicode="&#xd3;" horiz-adv-x="1468" 
d="M1399 700q0 -352 -173 -536t-499 -184q-315 0 -487 181t-172 507q0 349 177 533.5t507 184.5q307 0 477 -180.5t170 -505.5zM995 680q0 220 -63 325t-193 105q-128 0 -198 -111t-70 -317q0 -207 66 -317.5t190 -110.5q141 0 204.5 110t63.5 316zM792 1769h408v-18
l-371 -254h-272v20z" />
    <glyph glyph-name="Ocircumflex" unicode="&#xd4;" horiz-adv-x="1468" 
d="M1399 700q0 -352 -173 -536t-499 -184q-315 0 -487 181t-172 507q0 349 177 533.5t507 184.5q307 0 477 -180.5t170 -505.5zM995 680q0 220 -63 325t-193 105q-128 0 -198 -111t-70 -317q0 -207 66 -317.5t190 -110.5q141 0 204.5 110t63.5 316zM559 1769h368l207 -252
v-20h-260l-131 127l-133 -127h-258v20z" />
    <glyph glyph-name="Otilde" unicode="&#xd5;" horiz-adv-x="1468" 
d="M1399 700q0 -352 -173 -536t-499 -184q-315 0 -487 181t-172 507q0 349 177 533.5t507 184.5q307 0 477 -180.5t170 -505.5zM995 680q0 220 -63 325t-193 105q-128 0 -198 -111t-70 -317q0 -207 66 -317.5t190 -110.5q141 0 204.5 110t63.5 316zM889 1507q-37 0 -71 11.5
t-103 52.5q-31 19 -51.5 29t-43.5 10q-69 0 -73 -103h-177q2 148 57 228t154 80q49 0 84.5 -10t92.5 -46q30 -20 52.5 -33.5t47.5 -13.5t44 26.5t19 76.5h183q-2 -153 -57.5 -230.5t-157.5 -77.5z" />
    <glyph glyph-name="Odieresis" unicode="&#xd6;" horiz-adv-x="1468" 
d="M1399 700q0 -352 -173 -536t-499 -184q-315 0 -487 181t-172 507q0 349 177 533.5t507 184.5q307 0 477 -180.5t170 -505.5zM995 680q0 220 -63 325t-193 105q-128 0 -198 -111t-70 -317q0 -207 66 -317.5t190 -110.5q141 0 204.5 110t63.5 316zM397 1763h295v-264h-295
v264zM823 1763h295v-264h-295v264z" />
    <glyph glyph-name="multiply" unicode="&#xd7;" horiz-adv-x="1434" 
d="M1032 145l-315 316l-318 -316l-190 193l315 315l-317 318l192 190l318 -317l315 317l191 -190l-316 -316l316 -317z" />
    <glyph glyph-name="Oslash" unicode="&#xd8;" horiz-adv-x="1468" 
d="M287 119q-219 181 -219 549q0 349 177 533.5t507 184.5q119 0 219 -28l51 90h297l-119 -213q99 -91 149 -227.5t50 -307.5q0 -352 -173 -536t-499 -184q-122 0 -209 26l-47 -88h-297zM471 682q0 -110 25 -188l329 602q-35 14 -86 14q-128 0 -198 -111t-70 -317zM995 680
q0 100 -20 156l-313 -572q25 -10 65 -10q141 0 204.5 110t63.5 316z" />
    <glyph glyph-name="Ugrave" unicode="&#xd9;" horiz-adv-x="1448" 
d="M727 -20q-283 0 -434.5 132t-151.5 384v870h400v-860q0 -199 184 -199q85 0 133.5 51.5t48.5 147.5v860h400v-870q0 -243 -155.5 -379.5t-424.5 -136.5zM914 1517v-20h-273l-370 254v18h407z" />
    <glyph glyph-name="Uacute" unicode="&#xda;" horiz-adv-x="1448" 
d="M727 -20q-283 0 -434.5 132t-151.5 384v870h400v-860q0 -199 184 -199q85 0 133.5 51.5t48.5 147.5v860h400v-870q0 -243 -155.5 -379.5t-424.5 -136.5zM743 1767h408v-18l-371 -254h-272v20z" />
    <glyph glyph-name="Ucircumflex" unicode="&#xdb;" horiz-adv-x="1448" 
d="M727 -20q-283 0 -434.5 132t-151.5 384v870h400v-860q0 -199 184 -199q85 0 133.5 51.5t48.5 147.5v860h400v-870q0 -243 -155.5 -379.5t-424.5 -136.5zM537 1769h368l207 -252v-20h-260l-131 127l-133 -127h-258v20z" />
    <glyph glyph-name="Udieresis" unicode="&#xdc;" horiz-adv-x="1448" 
d="M727 -20q-283 0 -434.5 132t-151.5 384v870h400v-860q0 -199 184 -199q85 0 133.5 51.5t48.5 147.5v860h400v-870q0 -243 -155.5 -379.5t-424.5 -136.5zM360 1761h295v-264h-295v264zM786 1761h295v-264h-295v264z" />
    <glyph glyph-name="Yacute" unicode="&#xdd;" horiz-adv-x="1225" 
d="M412 514q-185 364 -426 852h420l153 -373l57 -194l56 192l155 375h412l-428 -852v-514h-399v514zM672 1769h408v-18l-371 -254h-272v20z" />
    <glyph glyph-name="Thorn" unicode="&#xde;" horiz-adv-x="1249" 
d="M514 240v-240h-360v1366h352v-240h237q209 0 327 -111t118 -300q0 -218 -119 -346.5t-326 -128.5h-229zM823 698q0 74 -45.5 120t-120.5 46h-143v-342h104q109 0 157 43t48 133z" />
    <glyph glyph-name="germandbls" unicode="&#xdf;" horiz-adv-x="1477" 
d="M1247 1141q0 -54 -18.5 -97.5t-48.5 -82.5t-110 -111q-62 -57 -62 -92t28.5 -57t149.5 -72q248 -104 248 -314q0 -170 -107 -252.5t-340 -82.5q-216 0 -338 49v227q150 -63 287 -63q135 0 135 79q0 44 -38.5 74.5t-141.5 69.5q-126 47 -183 114t-57 164q0 65 31 120
t97 112q75 64 101.5 100.5t26.5 75.5q0 115 -170 115q-200 0 -200 -228v-989h-390v1016q0 224 147 334t425 110q257 0 392.5 -80.5t135.5 -238.5z" />
    <glyph glyph-name="agrave" unicode="&#xe0;" horiz-adv-x="1210" 
d="M815 0l-80 143h-10q-72 -93 -147 -128t-181 -35q-161 0 -248.5 89t-87.5 248q0 175 112.5 267t330.5 92q79 0 219 -10v28q0 73 -50 108.5t-161 35.5q-156 0 -332 -80v237q228 72 375 72q273 0 399.5 -102.5t126.5 -321.5v-643h-266zM723 473q-63 10 -105 10
q-99 0 -146.5 -38t-47.5 -119q0 -62 28.5 -92.5t77.5 -30.5q53 0 104.5 28t88.5 91v151zM811 1208v-20h-273l-370 254v18h407z" />
    <glyph glyph-name="aacute" unicode="&#xe1;" horiz-adv-x="1210" 
d="M815 0l-80 143h-10q-72 -93 -147 -128t-181 -35q-161 0 -248.5 89t-87.5 248q0 175 112.5 267t330.5 92q79 0 219 -10v28q0 73 -50 108.5t-161 35.5q-156 0 -332 -80v237q228 72 375 72q273 0 399.5 -102.5t126.5 -321.5v-643h-266zM723 473q-63 10 -105 10
q-99 0 -146.5 -38t-47.5 -119q0 -62 28.5 -92.5t77.5 -30.5q53 0 104.5 28t88.5 91v151zM624 1460h408v-18l-371 -254h-272v20z" />
    <glyph glyph-name="acircumflex" unicode="&#xe2;" horiz-adv-x="1210" 
d="M815 0l-80 143h-10q-72 -93 -147 -128t-181 -35q-161 0 -248.5 89t-87.5 248q0 175 112.5 267t330.5 92q79 0 219 -10v28q0 73 -50 108.5t-161 35.5q-156 0 -332 -80v237q228 72 375 72q273 0 399.5 -102.5t126.5 -321.5v-643h-266zM723 473q-63 10 -105 10
q-99 0 -146.5 -38t-47.5 -119q0 -62 28.5 -92.5t77.5 -30.5q53 0 104.5 28t88.5 91v151zM432 1460h368l207 -252v-20h-260l-131 127l-133 -127h-258v20z" />
    <glyph glyph-name="atilde" unicode="&#xe3;" horiz-adv-x="1210" 
d="M815 0l-80 143h-10q-72 -93 -147 -128t-181 -35q-161 0 -248.5 89t-87.5 248q0 175 112.5 267t330.5 92q79 0 219 -10v28q0 73 -50 108.5t-161 35.5q-156 0 -332 -80v237q228 72 375 72q273 0 399.5 -102.5t126.5 -321.5v-643h-266zM723 473q-63 10 -105 10
q-99 0 -146.5 -38t-47.5 -119q0 -62 28.5 -92.5t77.5 -30.5q53 0 104.5 28t88.5 91v151zM764 1171q-37 0 -71 11.5t-103 52.5q-31 19 -51.5 29t-43.5 10q-69 0 -73 -103h-177q2 148 57 228t154 80q49 0 84.5 -10t92.5 -46q30 -20 52.5 -33.5t47.5 -13.5t44 26.5t19 76.5h183
q-2 -153 -57.5 -230.5t-157.5 -77.5z" />
    <glyph glyph-name="adieresis" unicode="&#xe4;" horiz-adv-x="1210" 
d="M815 0l-80 143h-10q-72 -93 -147 -128t-181 -35q-161 0 -248.5 89t-87.5 248q0 175 112.5 267t330.5 92q79 0 219 -10v28q0 73 -50 108.5t-161 35.5q-156 0 -332 -80v237q228 72 375 72q273 0 399.5 -102.5t126.5 -321.5v-643h-266zM723 473q-63 10 -105 10
q-99 0 -146.5 -38t-47.5 -119q0 -62 28.5 -92.5t77.5 -30.5q53 0 104.5 28t88.5 91v151zM229 1452h295v-264h-295v264zM655 1452h295v-264h-295v264z" />
    <glyph glyph-name="aring" unicode="&#xe5;" horiz-adv-x="1210" 
d="M815 0l-80 143h-10q-72 -93 -147 -128t-181 -35q-161 0 -248.5 89t-87.5 248q0 175 112.5 267t330.5 92q79 0 219 -10v28q0 73 -50 108.5t-161 35.5q-156 0 -332 -80v237q228 72 375 72q273 0 399.5 -102.5t126.5 -321.5v-643h-266zM723 473q-63 10 -105 10
q-99 0 -146.5 -38t-47.5 -119q0 -62 28.5 -92.5t77.5 -30.5q53 0 104.5 28t88.5 91v151zM334 1450q0 114 80 192.5t192 78.5t192 -78.5t80 -192.5q0 -113 -79 -193.5t-193 -80.5q-113 0 -192.5 80t-79.5 194zM688 1450q0 35 -24 58.5t-58 23.5q-35 0 -59.5 -24t-24.5 -58
q0 -33 25 -58.5t59 -25.5q35 0 58.5 25t23.5 59z" />
    <glyph glyph-name="ae" unicode="&#xe6;" horiz-adv-x="1782" 
d="M555 1067q231 0 356 -82q117 82 293 82q260 0 392.5 -135t132.5 -397v-109h-672q16 -107 80.5 -156t181.5 -49q70 0 133.5 9.5t206.5 48.5v-248q-97 -25 -214.5 -38t-219.5 -13q-296 0 -439 167h-8q-135 -167 -381 -167q-161 0 -248.5 89t-87.5 248q0 175 112.5 267
t330.5 92q79 0 219 -10q0 95 -47.5 133.5t-163.5 38.5q-156 0 -332 -80v237q228 72 375 72zM1239 823q-88 0 -130.5 -56t-53.5 -155h346q0 94 -44 152.5t-118 58.5zM530 203q53 0 104.5 28t88.5 91v151q-63 10 -105 10q-99 0 -146.5 -38t-47.5 -119q0 -62 28.5 -92.5
t77.5 -30.5z" />
    <glyph glyph-name="ccedilla" unicode="&#xe7;" horiz-adv-x="981" 
d="M504 -12q-218 24 -324 152t-106 366q0 277 145 419t430 142q153 0 287 -31v-260q-88 29 -136 38t-114 9q-108 0 -170.5 -77.5t-62.5 -227.5q0 -138 58.5 -217.5t166.5 -79.5q82 0 135 11t123 38v-250q-132 -33 -240 -38l-43 -62q96 -12 142.5 -60.5t46.5 -144.5
q0 -108 -79 -163.5t-228 -55.5q-103 0 -193 37v158q92 -39 158 -39q61 0 85.5 16.5t24.5 48.5q0 77 -233 103z" />
    <glyph glyph-name="egrave" unicode="&#xe8;" horiz-adv-x="1188" 
d="M461 428q15 -108 79.5 -157.5t182.5 -49.5q73 0 140 10.5t200 49.5v-250q-199 -51 -434 -51q-267 0 -411 136t-144 390q0 165 64.5 293t185 198t284.5 70q259 0 390.5 -134t131.5 -396v-109h-669zM641 825q-158 0 -184 -213h348q0 96 -45 154.5t-119 58.5zM842 1208v-20
h-273l-370 254v18h407z" />
    <glyph glyph-name="eacute" unicode="&#xe9;" horiz-adv-x="1188" 
d="M461 428q15 -108 79.5 -157.5t182.5 -49.5q73 0 140 10.5t200 49.5v-250q-199 -51 -434 -51q-267 0 -411 136t-144 390q0 165 64.5 293t185 198t284.5 70q259 0 390.5 -134t131.5 -396v-109h-669zM641 825q-158 0 -184 -213h348q0 96 -45 154.5t-119 58.5zM676 1460h408
v-18l-371 -254h-272v20z" />
    <glyph glyph-name="ecircumflex" unicode="&#xea;" horiz-adv-x="1188" 
d="M461 428q15 -108 79.5 -157.5t182.5 -49.5q73 0 140 10.5t200 49.5v-250q-199 -51 -434 -51q-267 0 -411 136t-144 390q0 165 64.5 293t185 198t284.5 70q259 0 390.5 -134t131.5 -396v-109h-669zM641 825q-158 0 -184 -213h348q0 96 -45 154.5t-119 58.5zM437 1460h368
l207 -252v-20h-260l-131 127l-133 -127h-258v20z" />
    <glyph glyph-name="edieresis" unicode="&#xeb;" horiz-adv-x="1188" 
d="M461 428q15 -108 79.5 -157.5t182.5 -49.5q73 0 140 10.5t200 49.5v-250q-199 -51 -434 -51q-267 0 -411 136t-144 390q0 165 64.5 293t185 198t284.5 70q259 0 390.5 -134t131.5 -396v-109h-669zM641 825q-158 0 -184 -213h348q0 96 -45 154.5t-119 58.5zM248 1452h295
v-264h-295v264zM674 1452h295v-264h-295v264z" />
    <glyph glyph-name="igrave" unicode="&#xec;" horiz-adv-x="653" 
d="M506 0h-359v1040h359v-1040zM520 1208v-20h-273l-370 254v18h407z" />
    <glyph glyph-name="iacute" unicode="&#xed;" horiz-adv-x="653" 
d="M506 0h-359v1040h359v-1040zM377 1460h408v-18l-371 -254h-272v20z" />
    <glyph glyph-name="icircumflex" unicode="&#xee;" horiz-adv-x="653" 
d="M506 0h-359v1040h359v-1040zM144 1460h368l207 -252v-20h-260l-131 127l-133 -127h-258v20z" />
    <glyph glyph-name="idieresis" unicode="&#xef;" horiz-adv-x="653" 
d="M506 0h-359v1040h359v-1040zM-31 1452h295v-264h-295v264zM395 1452h295v-264h-295v264z" />
    <glyph glyph-name="eth" unicode="&#xf0;" horiz-adv-x="1229" 
d="M322 1214l157 56q-97 97 -227 190h399q68 -51 115 -98l301 98v-207l-156 -53q244 -319 244 -641q0 -283 -139.5 -431t-403.5 -148t-401 125.5t-137 371.5q0 226 125 359t338 133q122 0 194 -37q-58 115 -115 176l-294 -98v204zM780 485q0 242 -164 242
q-74 0 -117.5 -61.5t-43.5 -186.5q0 -258 161 -258q79 0 121.5 66.5t42.5 197.5z" />
    <glyph glyph-name="ntilde" unicode="&#xf1;" 
d="M1182 0h-359v639q0 84 -26 122t-92 38q-103 0 -199 -144v-655h-359v1040h267l82 -155h10q81 102 162.5 142t181.5 40q332 0 332 -379v-688zM820 1171q-37 0 -71 11.5t-103 52.5q-31 19 -51.5 29t-43.5 10q-69 0 -73 -103h-177q2 148 57 228t154 80q49 0 84.5 -10
t92.5 -46q30 -20 52.5 -33.5t47.5 -13.5t44 26.5t19 76.5h183q-2 -153 -57.5 -230.5t-157.5 -77.5z" />
    <glyph glyph-name="ograve" unicode="&#xf2;" horiz-adv-x="1235" 
d="M1161 522q0 -258 -144 -400t-413 -142q-259 0 -394.5 137t-135.5 389q0 275 141.5 418t417.5 143q259 0 393.5 -140t134.5 -405zM780 522q0 149 -38.5 225t-125.5 76q-163 0 -163 -305q0 -145 41 -221t122 -76q87 0 125.5 76t38.5 225zM799 1208v-20h-273l-370 254v18
h407z" />
    <glyph glyph-name="oacute" unicode="&#xf3;" horiz-adv-x="1235" 
d="M1161 522q0 -258 -144 -400t-413 -142q-259 0 -394.5 137t-135.5 389q0 275 141.5 418t417.5 143q259 0 393.5 -140t134.5 -405zM780 522q0 149 -38.5 225t-125.5 76q-163 0 -163 -305q0 -145 41 -221t122 -76q87 0 125.5 76t38.5 225zM665 1460h408v-18l-371 -254h-272
v20z" />
    <glyph glyph-name="ocircumflex" unicode="&#xf4;" horiz-adv-x="1235" 
d="M1161 522q0 -258 -144 -400t-413 -142q-259 0 -394.5 137t-135.5 389q0 275 141.5 418t417.5 143q259 0 393.5 -140t134.5 -405zM780 522q0 149 -38.5 225t-125.5 76q-163 0 -163 -305q0 -145 41 -221t122 -76q87 0 125.5 76t38.5 225zM434 1460h368l207 -252v-20h-260
l-131 127l-133 -127h-258v20z" />
    <glyph glyph-name="otilde" unicode="&#xf5;" horiz-adv-x="1235" 
d="M1161 522q0 -258 -144 -400t-413 -142q-259 0 -394.5 137t-135.5 389q0 275 141.5 418t417.5 143q259 0 393.5 -140t134.5 -405zM780 522q0 149 -38.5 225t-125.5 76q-163 0 -163 -305q0 -145 41 -221t122 -76q87 0 125.5 76t38.5 225zM766 1171q-37 0 -71 11.5
t-103 52.5q-31 19 -51.5 29t-43.5 10q-69 0 -73 -103h-177q2 148 57 228t154 80q49 0 84.5 -10t92.5 -46q30 -20 52.5 -33.5t47.5 -13.5t44 26.5t19 76.5h183q-2 -153 -57.5 -230.5t-157.5 -77.5z" />
    <glyph glyph-name="odieresis" unicode="&#xf6;" horiz-adv-x="1235" 
d="M1161 522q0 -258 -144 -400t-413 -142q-259 0 -394.5 137t-135.5 389q0 275 141.5 418t417.5 143q259 0 393.5 -140t134.5 -405zM780 522q0 149 -38.5 225t-125.5 76q-163 0 -163 -305q0 -145 41 -221t122 -76q87 0 125.5 76t38.5 225zM260 1452h295v-264h-295v264z
M686 1452h295v-264h-295v264z" />
    <glyph glyph-name="divide" unicode="&#xf7;" horiz-adv-x="1434" 
d="M1239 516h-1046v272h1046v-272zM571 100v312h291v-312h-291zM571 899v309h291v-309h-291z" />
    <glyph glyph-name="oslash" unicode="&#xf8;" horiz-adv-x="1235" 
d="M1161 520q0 -257 -144 -398.5t-413 -141.5q-104 0 -209 28l-51 -74h-250l119 177q-139 135 -139 393q0 276 141.5 419.5t417.5 143.5q114 0 203 -31l51 76h250l-121 -178q145 -141 145 -414zM780 520q0 32 -4 58l-227 -340q26 -17 67 -17q87 0 125.5 75.5t38.5 223.5z
M616 823q-80 0 -121.5 -74.5t-41.5 -218.5q0 -48 4 -59l223 338q-25 14 -64 14z" />
    <glyph glyph-name="ugrave" unicode="&#xf9;" 
d="M1161 0h-268l-80 156h-10q-60 -72 -107 -105.5t-104.5 -52t-132.5 -18.5q-164 0 -248 89t-84 281v690h358v-632q0 -89 27 -128.5t92 -39.5q104 0 199 143v657h358v-1040zM852 1228v-20h-273l-370 254v18h407z" />
    <glyph glyph-name="uacute" unicode="&#xfa;" 
d="M1161 0h-268l-80 156h-10q-60 -72 -107 -105.5t-104.5 -52t-132.5 -18.5q-164 0 -248 89t-84 281v690h358v-632q0 -89 27 -128.5t92 -39.5q104 0 199 143v657h358v-1040zM678 1460h408v-18l-371 -254h-272v20z" />
    <glyph glyph-name="ucircumflex" unicode="&#xfb;" 
d="M1161 0h-268l-80 156h-10q-60 -72 -107 -105.5t-104.5 -52t-132.5 -18.5q-164 0 -248 89t-84 281v690h358v-632q0 -89 27 -128.5t92 -39.5q104 0 199 143v657h358v-1040zM455 1460h368l207 -252v-20h-260l-131 127l-133 -127h-258v20z" />
    <glyph glyph-name="udieresis" unicode="&#xfc;" 
d="M1161 0h-268l-80 156h-10q-60 -72 -107 -105.5t-104.5 -52t-132.5 -18.5q-164 0 -248 89t-84 281v690h358v-632q0 -89 27 -128.5t92 -39.5q104 0 199 143v657h358v-1040zM287 1452h295v-264h-295v264zM713 1452h295v-264h-295v264z" />
    <glyph glyph-name="yacute" unicode="&#xfd;" horiz-adv-x="1135" 
d="M262 -492q-160 0 -272 25v248q105 -21 172 -21q153 0 200 138l27 69l-395 1073h360l168 -567q27 -90 41 -178h8q9 40 24.5 99t188.5 646h361l-410 -1112q-79 -215 -192.5 -317.5t-280.5 -102.5zM614 1460h408v-18l-371 -254h-272v20z" />
    <glyph glyph-name="thorn" unicode="&#xfe;" horiz-adv-x="1268" 
d="M147 1460h361v-391l-12 -170h10q69 89 138.5 128.5t150.5 39.5q197 0 298 -133t101 -391q0 -255 -111.5 -409t-300.5 -154q-98 0 -156.5 33t-117.5 118h-12l10 -190v-433h-359v1952zM831 541q0 133 -44 200.5t-125 67.5q-42 0 -84.5 -34.5t-71.5 -90.5v-324
q63 -104 160 -104q165 0 165 285z" />
    <glyph glyph-name="ydieresis" unicode="&#xff;" horiz-adv-x="1135" 
d="M262 -492q-160 0 -272 25v248q105 -21 172 -21q153 0 200 138l27 69l-395 1073h360l168 -567q27 -90 41 -178h8q9 40 24.5 99t188.5 646h361l-410 -1112q-79 -215 -192.5 -317.5t-280.5 -102.5zM201 1452h295v-264h-295v264zM627 1452h295v-264h-295v264z" />
    <glyph glyph-name="Amacron" unicode="&#x100;" horiz-adv-x="1403" 
d="M924 305h-457l-96 -305h-385l471 1366h489l471 -1366h-395zM829 602l-81 268l-52 203h-8l-49 -205l-78 -266h268zM358 1714h666v-188h-666v188z" />
    <glyph glyph-name="amacron" unicode="&#x101;" horiz-adv-x="1210" 
d="M815 0l-80 143h-10q-72 -93 -147 -128t-181 -35q-161 0 -248.5 89t-87.5 248q0 175 112.5 267t330.5 92q79 0 219 -10v28q0 73 -50 108.5t-161 35.5q-156 0 -332 -80v237q228 72 375 72q273 0 399.5 -102.5t126.5 -321.5v-643h-266zM723 473q-63 10 -105 10
q-99 0 -146.5 -38t-47.5 -119q0 -62 28.5 -92.5t77.5 -30.5q53 0 104.5 28t88.5 91v151zM278 1384h666v-188h-666v188z" />
    <glyph glyph-name="Abreve" unicode="&#x102;" horiz-adv-x="1403" 
d="M924 305h-457l-96 -305h-385l471 1366h489l471 -1366h-395zM829 602l-81 268l-52 203h-8l-49 -205l-78 -266h268zM700 1474q-111 0 -198 42t-135 116.5t-48 163.5v20h242q0 -60 38 -94.5t101 -34.5q60 0 99.5 37t39.5 92h242v-20q0 -91 -47 -165t-134 -115.5t-200 -41.5z
" />
    <glyph glyph-name="abreve" unicode="&#x103;" horiz-adv-x="1210" 
d="M815 0l-80 143h-10q-72 -93 -147 -128t-181 -35q-161 0 -248.5 89t-87.5 248q0 175 112.5 267t330.5 92q79 0 219 -10v28q0 73 -50 108.5t-161 35.5q-156 0 -332 -80v237q228 72 375 72q273 0 399.5 -102.5t126.5 -321.5v-643h-266zM723 473q-63 10 -105 10
q-99 0 -146.5 -38t-47.5 -119q0 -62 28.5 -92.5t77.5 -30.5q53 0 104.5 28t88.5 91v151zM606 1165q-111 0 -198 42t-135 116.5t-48 163.5v20h242q0 -60 38 -94.5t101 -34.5q60 0 99.5 37t39.5 92h242v-20q0 -91 -47 -165t-134 -115.5t-200 -41.5z" />
    <glyph glyph-name="Aogonek" unicode="&#x104;" horiz-adv-x="1403" 
d="M924 305h-457l-96 -305h-385l471 1366h489l471 -1366h-395zM829 602l-81 268l-52 203h-8l-49 -205l-78 -266h268zM1301 -248q36 0 96 15v-195q-52 -12 -144 -12q-133 0 -204.5 59t-71.5 170q0 81 50.5 146.5t129.5 91.5l221 -23q-78 -35 -125 -82.5t-47 -95.5
q0 -35 25 -54.5t70 -19.5z" />
    <glyph glyph-name="aogonek" unicode="&#x105;" horiz-adv-x="1210" 
d="M815 0l-80 143h-10q-72 -93 -147 -128t-181 -35q-161 0 -248.5 89t-87.5 248q0 175 112.5 267t330.5 92q79 0 219 -10v28q0 73 -50 108.5t-161 35.5q-156 0 -332 -80v237q228 72 375 72q273 0 399.5 -102.5t126.5 -321.5v-643h-266zM723 473q-63 10 -105 10
q-99 0 -146.5 -38t-47.5 -119q0 -62 28.5 -92.5t77.5 -30.5q53 0 104.5 28t88.5 91v151zM1004 -248q36 0 96 15v-195q-52 -12 -144 -12q-133 0 -204.5 59t-71.5 170q0 81 50.5 146.5t129.5 91.5l221 -23q-78 -35 -125 -82.5t-47 -95.5q0 -35 25 -54.5t70 -19.5z" />
    <glyph glyph-name="Cacute" unicode="&#x106;" horiz-adv-x="1141" 
d="M713 -20q-318 0 -481.5 175t-163.5 509q0 212 82 377.5t235 255t352 89.5q216 0 361 -59v-309q-132 69 -275 69q-171 0 -261.5 -108t-90.5 -309q0 -182 83.5 -290t225.5 -108q82 0 155 18t167 66v-301q-152 -75 -389 -75zM772 1769h408v-18l-371 -254h-272v20z" />
    <glyph glyph-name="cacute" unicode="&#x107;" horiz-adv-x="981" 
d="M649 1067q153 0 287 -31v-260q-88 29 -136 38t-114 9q-108 0 -170.5 -77.5t-62.5 -227.5q0 -138 58.5 -217.5t166.5 -79.5q82 0 135 11t123 38v-250q-152 -40 -305 -40q-281 0 -419 128.5t-138 397.5q0 277 145 419t430 142zM651 1460h408v-18l-371 -254h-272v20z" />
    <glyph glyph-name="Ccircumflex" unicode="&#x108;" horiz-adv-x="1141" 
d="M713 -20q-318 0 -481.5 175t-163.5 509q0 212 82 377.5t235 255t352 89.5q216 0 361 -59v-309q-132 69 -275 69q-171 0 -261.5 -108t-90.5 -309q0 -182 83.5 -290t225.5 -108q82 0 155 18t167 66v-301q-152 -75 -389 -75zM539 1769h368l207 -252v-20h-260l-131 127
l-133 -127h-258v20z" />
    <glyph glyph-name="ccircumflex" unicode="&#x109;" horiz-adv-x="981" 
d="M649 1067q153 0 287 -31v-260q-88 29 -136 38t-114 9q-108 0 -170.5 -77.5t-62.5 -227.5q0 -138 58.5 -217.5t166.5 -79.5q82 0 135 11t123 38v-250q-152 -40 -305 -40q-281 0 -419 128.5t-138 397.5q0 277 145 419t430 142zM422 1460h368l207 -252v-20h-260l-131 127
l-133 -127h-258v20z" />
    <glyph glyph-name="Cdotaccent" unicode="&#x10a;" horiz-adv-x="1141" 
d="M713 -20q-318 0 -481.5 175t-163.5 509q0 212 82 377.5t235 255t352 89.5q216 0 361 -59v-309q-132 69 -275 69q-171 0 -261.5 -108t-90.5 -309q0 -182 83.5 -290t225.5 -108q82 0 155 18t167 66v-301q-152 -75 -389 -75zM553 1769h358v-231h-358v231z" />
    <glyph glyph-name="cdotaccent" unicode="&#x10b;" horiz-adv-x="981" 
d="M649 1067q153 0 287 -31v-260q-88 29 -136 38t-114 9q-108 0 -170.5 -77.5t-62.5 -227.5q0 -138 58.5 -217.5t166.5 -79.5q82 0 135 11t123 38v-250q-152 -40 -305 -40q-281 0 -419 128.5t-138 397.5q0 277 145 419t430 142zM436 1460h358v-231h-358v231z" />
    <glyph glyph-name="Ccaron" unicode="&#x10c;" horiz-adv-x="1141" 
d="M713 -20q-318 0 -481.5 175t-163.5 509q0 212 82 377.5t235 255t352 89.5q216 0 361 -59v-309q-132 69 -275 69q-171 0 -261.5 -108t-90.5 -309q0 -182 83.5 -290t225.5 -108q82 0 155 18t167 66v-301q-152 -75 -389 -75zM344 1747v20h258l133 -127l131 127h260v-20
l-207 -252h-368z" />
    <glyph glyph-name="ccaron" unicode="&#x10d;" horiz-adv-x="981" 
d="M649 1067q153 0 287 -31v-260q-88 29 -136 38t-114 9q-108 0 -170.5 -77.5t-62.5 -227.5q0 -138 58.5 -217.5t166.5 -79.5q82 0 135 11t123 38v-250q-152 -40 -305 -40q-281 0 -419 128.5t-138 397.5q0 277 145 419t430 142zM227 1438v20h258l133 -127l131 127h260v-20
l-207 -252h-368z" />
    <glyph glyph-name="Dcaron" unicode="&#x10e;" horiz-adv-x="1425" 
d="M1356 694q0 -203 -84 -362t-239.5 -245.5t-356.5 -86.5h-520v1366h532q312 0 490 -179t178 -493zM956 692q0 175 -76.5 274t-213.5 99h-111v-764h98q134 0 217.5 108.5t85.5 282.5zM291 1747v20h258l133 -127l131 127h260v-20l-207 -252h-368z" />
    <glyph glyph-name="dcaron" unicode="&#x10f;" horiz-adv-x="1360" 
d="M772 907l-12 195v358h358v-1460h-270l-76 147h-14q-99 -167 -285 -167q-195 0 -297 135t-102 395q0 254 109.5 405.5t295.5 151.5q88 0 154 -38.5t125 -121.5h14zM434 526q0 -147 47 -217.5t131 -70.5q41 0 84.5 38t63.5 86v324q-46 59 -80.5 82t-77.5 23
q-85 0 -126.5 -69.5t-41.5 -195.5zM1157 1102q59 70 95 171.5t36 186.5h307q0 -90 -44 -188.5t-121 -169.5h-273z" />
    <glyph glyph-name="Dcroat" unicode="&#x110;" horiz-adv-x="1425" 
d="M1356 694q0 -203 -84 -362t-239.5 -245.5t-356.5 -86.5h-520v545h-138v270h138v551h532q312 0 490 -179t178 -493zM956 692q0 175 -76.5 274t-213.5 99h-111v-250h238v-270h-238v-244h98q134 0 217.5 108.5t85.5 282.5z" />
    <glyph glyph-name="dcroat" unicode="&#x111;" horiz-adv-x="1268" 
d="M772 846l-10 194v76h-340v203h340v141h358v-141h144v-203h-144v-1116h-270l-78 147h-14q-99 -167 -289 -167q-192 0 -293.5 132.5t-101.5 385.5q0 251 105 379.5t306 128.5q175 0 275 -160h12zM436 479q0 -125 40.5 -183t127.5 -58q47 0 90 28.5t68 81.5v295
q-64 86 -160 86q-166 0 -166 -250z" />
    <glyph glyph-name="Emacron" unicode="&#x112;" horiz-adv-x="1137" 
d="M156 1366h917v-272h-518v-258h459v-273h-459v-293h518v-270h-917v1366zM276 1693h666v-188h-666v188z" />
    <glyph glyph-name="emacron" unicode="&#x113;" horiz-adv-x="1188" 
d="M461 428q15 -108 79.5 -157.5t182.5 -49.5q73 0 140 10.5t200 49.5v-250q-199 -51 -434 -51q-267 0 -411 136t-144 390q0 165 64.5 293t185 198t284.5 70q259 0 390.5 -134t131.5 -396v-109h-669zM641 825q-158 0 -184 -213h348q0 96 -45 154.5t-119 58.5zM291 1384h666
v-188h-666v188z" />
    <glyph glyph-name="Ebreve" unicode="&#x114;" horiz-adv-x="1137" 
d="M156 1366h917v-272h-518v-258h459v-273h-459v-293h518v-270h-917v1366zM618 1474q-111 0 -198 42t-135 116.5t-48 163.5v20h242q0 -60 38 -94.5t101 -34.5q60 0 99.5 37t39.5 92h242v-20q0 -91 -47 -165t-134 -115.5t-200 -41.5z" />
    <glyph glyph-name="ebreve" unicode="&#x115;" horiz-adv-x="1188" 
d="M461 428q15 -108 79.5 -157.5t182.5 -49.5q73 0 140 10.5t200 49.5v-250q-199 -51 -434 -51q-267 0 -411 136t-144 390q0 165 64.5 293t185 198t284.5 70q259 0 390.5 -134t131.5 -396v-109h-669zM641 825q-158 0 -184 -213h348q0 96 -45 154.5t-119 58.5zM627 1165
q-111 0 -198 42t-135 116.5t-48 163.5v20h242q0 -60 38 -94.5t101 -34.5q60 0 99.5 37t39.5 92h242v-20q0 -91 -47 -165t-134 -115.5t-200 -41.5z" />
    <glyph glyph-name="Edotaccent" unicode="&#x116;" horiz-adv-x="1137" 
d="M156 1366h917v-272h-518v-258h459v-273h-459v-293h518v-270h-917v1366zM420 1769h358v-231h-358v231z" />
    <glyph glyph-name="edotaccent" unicode="&#x117;" horiz-adv-x="1188" 
d="M461 428q15 -108 79.5 -157.5t182.5 -49.5q73 0 140 10.5t200 49.5v-250q-199 -51 -434 -51q-267 0 -411 136t-144 390q0 165 64.5 293t185 198t284.5 70q259 0 390.5 -134t131.5 -396v-109h-669zM641 825q-158 0 -184 -213h348q0 96 -45 154.5t-119 58.5zM461 1460h358
v-231h-358v231z" />
    <glyph glyph-name="Eogonek" unicode="&#x118;" horiz-adv-x="1137" 
d="M156 1366h917v-272h-518v-258h459v-273h-459v-293h518v-270h-917v1366zM936 -248q36 0 96 15v-195q-52 -12 -144 -12q-133 0 -204.5 59t-71.5 170q0 81 50.5 146.5t129.5 91.5l221 -23q-78 -35 -125 -82.5t-47 -95.5q0 -35 25 -54.5t70 -19.5z" />
    <glyph glyph-name="eogonek" unicode="&#x119;" horiz-adv-x="1188" 
d="M461 428q15 -108 79.5 -157.5t182.5 -49.5q73 0 140 10.5t200 49.5v-250q-199 -51 -434 -51q-267 0 -411 136t-144 390q0 165 64.5 293t185 198t284.5 70q259 0 390.5 -134t131.5 -396v-109h-669zM641 825q-158 0 -184 -213h348q0 96 -45 154.5t-119 58.5zM865 -248
q36 0 96 15v-195q-52 -12 -144 -12q-133 0 -204.5 59t-71.5 170q0 81 50.5 146.5t129.5 91.5l221 -23q-78 -35 -125 -82.5t-47 -95.5q0 -35 25 -54.5t70 -19.5z" />
    <glyph glyph-name="Ecaron" unicode="&#x11a;" horiz-adv-x="1137" 
d="M156 1366h917v-272h-518v-258h459v-273h-459v-293h518v-270h-917v1366zM217 1747v20h258l133 -127l131 127h260v-20l-207 -252h-368z" />
    <glyph glyph-name="ecaron" unicode="&#x11b;" horiz-adv-x="1188" 
d="M461 428q15 -108 79.5 -157.5t182.5 -49.5q73 0 140 10.5t200 49.5v-250q-199 -51 -434 -51q-267 0 -411 136t-144 390q0 165 64.5 293t185 198t284.5 70q259 0 390.5 -134t131.5 -396v-109h-669zM641 825q-158 0 -184 -213h348q0 96 -45 154.5t-119 58.5zM225 1438v20
h258l133 -127l131 127h260v-20l-207 -252h-368z" />
    <glyph glyph-name="Gcircumflex" unicode="&#x11c;" horiz-adv-x="1354" 
d="M1243 90q-114 -59 -242 -84.5t-294 -25.5q-308 0 -473.5 180t-165.5 510q0 209 86.5 373t247.5 253.5t372 89.5q230 0 402 -65v-309q-139 75 -314 75q-190 0 -289.5 -107t-99.5 -310q0 -186 90 -293t244 -107q55 0 115 17v198h-217v271h538v-666zM561 1769h368l207 -252
v-20h-260l-131 127l-133 -127h-258v20z" />
    <glyph glyph-name="gcircumflex" unicode="&#x11d;" horiz-adv-x="1268" 
d="M434 524q0 -134 36 -201t114 -67q51 0 97.5 28.5t78.5 77.5v324q-33 52 -75.5 80.5t-80.5 28.5q-170 0 -170 -271zM557 -492q-244 0 -399 56v260q70 -30 167.5 -48t170.5 -18q262 0 262 219l12 170h-10q-54 -87 -128 -127t-186 -40q-174 0 -273 141.5t-99 386.5
q0 264 108.5 411.5t306.5 147.5q82 0 147 -39.5t122 -120.5h12l70 131h278v-1061q0 -234 -135.5 -351.5t-425.5 -117.5zM494 1460h368l207 -252v-20h-260l-131 127l-133 -127h-258v20z" />
    <glyph glyph-name="Gbreve" unicode="&#x11e;" horiz-adv-x="1354" 
d="M1243 90q-114 -59 -242 -84.5t-294 -25.5q-308 0 -473.5 180t-165.5 510q0 209 86.5 373t247.5 253.5t372 89.5q230 0 402 -65v-309q-139 75 -314 75q-190 0 -289.5 -107t-99.5 -310q0 -186 90 -293t244 -107q55 0 115 17v198h-217v271h538v-666zM756 1474
q-111 0 -198 42t-135 116.5t-48 163.5v20h242q0 -60 38 -94.5t101 -34.5q60 0 99.5 37t39.5 92h242v-20q0 -91 -47 -165t-134 -115.5t-200 -41.5z" />
    <glyph glyph-name="gbreve" unicode="&#x11f;" horiz-adv-x="1268" 
d="M434 524q0 -134 36 -201t114 -67q51 0 97.5 28.5t78.5 77.5v324q-33 52 -75.5 80.5t-80.5 28.5q-170 0 -170 -271zM557 -492q-244 0 -399 56v260q70 -30 167.5 -48t170.5 -18q262 0 262 219l12 170h-10q-54 -87 -128 -127t-186 -40q-174 0 -273 141.5t-99 386.5
q0 264 108.5 411.5t306.5 147.5q82 0 147 -39.5t122 -120.5h12l70 131h278v-1061q0 -234 -135.5 -351.5t-425.5 -117.5zM641 1165q-111 0 -198 42t-135 116.5t-48 163.5v20h242q0 -60 38 -94.5t101 -34.5q60 0 99.5 37t39.5 92h242v-20q0 -91 -47 -165t-134 -115.5
t-200 -41.5z" />
    <glyph glyph-name="Gdotaccent" unicode="&#x120;" horiz-adv-x="1354" 
d="M1243 90q-114 -59 -242 -84.5t-294 -25.5q-308 0 -473.5 180t-165.5 510q0 209 86.5 373t247.5 253.5t372 89.5q230 0 402 -65v-309q-139 75 -314 75q-190 0 -289.5 -107t-99.5 -310q0 -186 90 -293t244 -107q55 0 115 17v198h-217v271h538v-666zM592 1769h358v-231h-358
v231z" />
    <glyph glyph-name="gdotaccent" unicode="&#x121;" horiz-adv-x="1268" 
d="M434 524q0 -134 36 -201t114 -67q51 0 97.5 28.5t78.5 77.5v324q-33 52 -75.5 80.5t-80.5 28.5q-170 0 -170 -271zM557 -492q-244 0 -399 56v260q70 -30 167.5 -48t170.5 -18q262 0 262 219l12 170h-10q-54 -87 -128 -127t-186 -40q-174 0 -273 141.5t-99 386.5
q0 264 108.5 411.5t306.5 147.5q82 0 147 -39.5t122 -120.5h12l70 131h278v-1061q0 -234 -135.5 -351.5t-425.5 -117.5zM477 1460h358v-231h-358v231z" />
    <glyph glyph-name="Gcommaaccent" unicode="&#x122;" horiz-adv-x="1354" 
d="M1243 90q-114 -59 -242 -84.5t-294 -25.5q-308 0 -473.5 180t-165.5 510q0 209 86.5 373t247.5 253.5t372 89.5q230 0 402 -65v-309q-139 75 -314 75q-190 0 -289.5 -107t-99.5 -310q0 -186 90 -293t244 -107q55 0 115 17v198h-217v271h538v-666zM524 -477
q56 67 92.5 168t36.5 190h309q0 -90 -44 -188.5t-121 -169.5h-273z" />
    <glyph glyph-name="gcommaaccent" unicode="&#x123;" horiz-adv-x="1268" 
d="M434 524q0 -134 36 -201t114 -67q51 0 97.5 28.5t78.5 77.5v324q-33 52 -75.5 80.5t-80.5 28.5q-170 0 -170 -271zM557 -492q-244 0 -399 56v260q70 -30 167.5 -48t170.5 -18q262 0 262 219l12 170h-10q-54 -87 -128 -127t-186 -40q-174 0 -273 141.5t-99 386.5
q0 264 108.5 411.5t306.5 147.5q82 0 147 -39.5t122 -120.5h12l70 131h278v-1061q0 -234 -135.5 -351.5t-425.5 -117.5zM914 1562q-53 -62 -90 -164.5t-37 -195.5h-307q0 99 48.5 201t114.5 159h271z" />
    <glyph glyph-name="Hcircumflex" unicode="&#x124;" horiz-adv-x="1497" 
d="M1341 0h-399v532h-387v-532h-399v1366h399v-516h387v516h399v-1366zM564 1769h368l207 -252v-20h-260l-131 127l-133 -127h-258v20z" />
    <glyph glyph-name="hcircumflex" unicode="&#x125;" 
d="M1182 0h-359v639q0 84 -27 122t-91 38q-103 0 -199 -144v-655h-359v1460h359v-399l-10 -176h10q81 102 162.5 142t181.5 40q332 0 332 -379v-688zM475 1855h368l207 -252v-20h-260l-131 127l-133 -127h-258v20z" />
    <glyph glyph-name="Hbar" unicode="&#x126;" horiz-adv-x="1544" 
d="M176 981h-147v223h147v162h399v-162h388v162h399v-162h154v-223h-154v-981h-399v532h-388v-532h-399v981zM575 981v-131h388v131h-388z" />
    <glyph glyph-name="hbar" unicode="&#x127;" horiz-adv-x="1319" 
d="M877 1319v-203h-369v-117l-10 -176h10q63 75 110 109t105 54t131 20q165 0 247.5 -93t82.5 -286v-627h-359v575q0 88 -28.5 125t-89.5 37q-104 0 -199 -143v-594h-358v1116h-115v203h115v141h358v-141h369z" />
    <glyph glyph-name="Itilde" unicode="&#x128;" horiz-adv-x="711" 
d="M156 1366h399v-1366h-399v1366zM518 1480q-37 0 -71 11.5t-103 52.5q-31 19 -51.5 29t-43.5 10q-69 0 -73 -103h-177q2 148 57 228t154 80q49 0 84.5 -10t92.5 -46q30 -20 52.5 -33.5t47.5 -13.5t44 26.5t19 76.5h183q-2 -153 -57.5 -230.5t-157.5 -77.5z" />
    <glyph glyph-name="itilde" unicode="&#x129;" horiz-adv-x="653" 
d="M506 0h-359v1040h359v-1040zM482 1171q-37 0 -71 11.5t-103 52.5q-31 19 -51.5 29t-43.5 10q-69 0 -73 -103h-177q2 148 57 228t154 80q49 0 84.5 -10t92.5 -46q30 -20 52.5 -33.5t47.5 -13.5t44 26.5t19 76.5h183q-2 -153 -57.5 -230.5t-157.5 -77.5z" />
    <glyph glyph-name="Imacron" unicode="&#x12a;" horiz-adv-x="711" 
d="M156 1366h399v-1366h-399v1366zM24 1693h666v-188h-666v188z" />
    <glyph glyph-name="imacron" unicode="&#x12b;" horiz-adv-x="653" 
d="M506 0h-359v1040h359v-1040zM-4 1384h666v-188h-666v188z" />
    <glyph glyph-name="Iogonek" unicode="&#x12e;" horiz-adv-x="711" 
d="M156 1366h399v-1366h-399v1366zM469 -248q36 0 96 15v-195q-52 -12 -144 -12q-133 0 -204.5 59t-71.5 170q0 81 50.5 146.5t129.5 91.5l221 -23q-78 -35 -125 -82.5t-47 -95.5q0 -35 25 -54.5t70 -19.5z" />
    <glyph glyph-name="iogonek" unicode="&#x12f;" horiz-adv-x="653" 
d="M147 1460h359v-231h-359v231zM506 0h-359v1040h359v-1040zM430 -248q36 0 96 15v-195q-52 -12 -144 -12q-133 0 -204.5 59t-71.5 170q0 81 50.5 146.5t129.5 91.5l221 -23q-78 -35 -125 -82.5t-47 -95.5q0 -35 25 -54.5t70 -19.5z" />
    <glyph glyph-name="Idotaccent" unicode="&#x130;" horiz-adv-x="711" 
d="M156 1366h399v-1366h-399v1366zM184 1769h358v-231h-358v231z" />
    <glyph glyph-name="dotlessi" unicode="&#x131;" horiz-adv-x="653" 
d="M506 0h-359v1040h359v-1040z" />
    <glyph glyph-name="IJ" unicode="&#x132;" horiz-adv-x="1421" 
d="M156 1366h399v-1366h-399v1366zM766 -463q-92 0 -159 14v283q32 -8 77 -8q89 0 136 63t47 185v1292h399v-1327q0 -243 -129.5 -372.5t-370.5 -129.5z" />
    <glyph glyph-name="ij" unicode="&#x133;" horiz-adv-x="1307" 
d="M147 1460h359v-231h-359v231zM506 0h-359v1040h359v-1040zM800 1040h359v-1155q0 -182 -88 -279.5t-250 -97.5q-157 0 -254 23v242q44 -11 113 -11q57 0 88.5 35.5t31.5 120.5v1122zM800 1460h359v-231h-359v231z" />
    <glyph glyph-name="Jcircumflex" unicode="&#x134;" horiz-adv-x="711" 
d="M55 -463q-92 0 -159 14v283q32 -8 77 -8q89 0 136 63t47 185v1292h399v-1327q0 -243 -129.5 -372.5t-370.5 -129.5zM174 1769h368l207 -252v-20h-260l-131 127l-133 -127h-258v20z" />
    <glyph glyph-name="jcircumflex" unicode="&#x135;" horiz-adv-x="653" 
d="M147 1040h359v-1155q0 -182 -88 -279.5t-250 -97.5q-158 0 -254 17v248q44 -11 113 -11q57 0 88.5 35.5t31.5 120.5v1122zM146 1460h368l207 -252v-20h-260l-131 127l-133 -127h-258v20z" />
    <glyph glyph-name="Kcommaaccent" unicode="&#x136;" horiz-adv-x="1366" 
d="M557 659h-12l10 -262v-397h-399v1366h399v-475l-10 -154h12l381 629h430l-455 -655l469 -711h-442zM455 -477q56 67 92.5 168t36.5 190h309q0 -90 -44 -188.5t-121 -169.5h-273z" />
    <glyph glyph-name="kcommaaccent" unicode="&#x137;" horiz-adv-x="1190" 
d="M504 520h-10l12 -213v-307h-359v1460h359v-606l-12 -233h8l282 417h396l-349 -456l375 -582h-399zM371 -477q56 67 92.5 168t36.5 190h309q0 -90 -44 -188.5t-121 -169.5h-273z" />
    <glyph glyph-name="Lacute" unicode="&#x139;" horiz-adv-x="1075" 
d="M1042 0h-886v1366h399v-1065h487v-301zM502 1769h408v-18l-371 -254h-272v20z" />
    <glyph glyph-name="lacute" unicode="&#x13a;" horiz-adv-x="741" 
d="M498 373q0 -133 127 -133q45 0 106 8v-248q-40 -9 -117 -14.5t-141 -5.5q-334 0 -334 335v1145h359v-1087zM418 1868h408v-18l-371 -254h-272v20z" />
    <glyph glyph-name="Lcommaaccent" unicode="&#x13b;" horiz-adv-x="1075" 
d="M1042 0h-886v1366h399v-1065h487v-301zM317 -477q56 67 92.5 168t36.5 190h309q0 -90 -44 -188.5t-121 -169.5h-273z" />
    <glyph glyph-name="lcommaaccent" unicode="&#x13c;" horiz-adv-x="741" 
d="M498 373q0 -133 127 -133q45 0 106 8v-248q-40 -9 -117 -14.5t-141 -5.5q-334 0 -334 335v1145h359v-1087zM174 -477q56 67 92.5 168t36.5 190h309q0 -90 -44 -188.5t-121 -169.5h-273z" />
    <glyph glyph-name="Lcaron" unicode="&#x13d;" horiz-adv-x="1075" 
d="M1042 0h-886v1366h399v-1065h487v-301zM696 1006q60 71 95.5 175t35.5 185h308q0 -96 -48.5 -198.5t-117.5 -161.5h-273z" />
    <glyph glyph-name="lcaron" unicode="&#x13e;" horiz-adv-x="811" 
d="M498 373q0 -133 127 -133q69 0 106 8v-248q-115 -20 -258 -20q-334 0 -334 335v1145h359v-1087zM537 1100q52 62 90.5 165.5t38.5 194.5h309q0 -96 -47.5 -195t-120.5 -165h-270z" />
    <glyph glyph-name="Ldot" unicode="&#x13f;" horiz-adv-x="1087" 
d="M1042 0h-886v1366h399v-1049h487v-317zM719 950h321v-323h-321v323z" />
    <glyph glyph-name="ldot" unicode="&#x140;" horiz-adv-x="1001" 
d="M498 373q0 -133 127 -133q69 0 106 8v-248q-115 -20 -258 -20q-334 0 -334 335v1145h359v-1087zM649 924h322v-324h-322v324z" />
    <glyph glyph-name="Lslash" unicode="&#x141;" horiz-adv-x="1075" 
d="M1042 0h-886v379l-170 -84v317l170 86v668h399v-471l252 131v-319l-252 -129v-277h487v-301z" />
    <glyph glyph-name="lslash" unicode="&#x142;" horiz-adv-x="741" 
d="M498 860l192 105v-301l-192 -105v-186q0 -133 127 -133q45 0 106 8v-248q-40 -9 -117 -14.5t-141 -5.5q-334 0 -334 335v54l-139 -74v301l139 74v790h359v-600z" />
    <glyph glyph-name="Nacute" unicode="&#x143;" horiz-adv-x="1575" 
d="M156 0v1366h405l494 -819h8l-19 301v518h375v-1366h-397l-504 831h-10l20 -303v-528h-372zM837 1769h408v-18l-371 -254h-272v20z" />
    <glyph glyph-name="nacute" unicode="&#x144;" 
d="M1182 0h-359v639q0 84 -26 122t-92 38q-103 0 -199 -144v-655h-359v1040h267l82 -155h10q81 102 162.5 142t181.5 40q332 0 332 -379v-688zM686 1460h408v-18l-371 -254h-272v20z" />
    <glyph glyph-name="Ncommaaccent" unicode="&#x145;" horiz-adv-x="1575" 
d="M156 0v1366h405l494 -819h8l-19 301v518h375v-1366h-397l-504 831h-10l20 -303v-528h-372zM551 -477q56 67 92.5 168t36.5 190h309q0 -90 -44 -188.5t-121 -169.5h-273z" />
    <glyph glyph-name="ncommaaccent" unicode="&#x146;" 
d="M1182 0h-359v639q0 84 -26 122t-92 38q-103 0 -199 -144v-655h-359v1040h267l82 -155h10q81 102 162.5 142t181.5 40q332 0 332 -379v-688zM385 -473q56 67 92.5 168t36.5 190h309q0 -90 -44 -188.5t-121 -169.5h-273z" />
    <glyph glyph-name="Ncaron" unicode="&#x147;" horiz-adv-x="1575" 
d="M156 0v1366h405l494 -819h8l-19 301v518h375v-1366h-397l-504 831h-10l20 -303v-528h-372zM402 1747v20h258l133 -127l131 127h260v-20l-207 -252h-368z" />
    <glyph glyph-name="ncaron" unicode="&#x148;" 
d="M1182 0h-359v639q0 84 -26 122t-92 38q-103 0 -199 -144v-655h-359v1040h267l82 -155h10q81 102 162.5 142t181.5 40q332 0 332 -379v-688zM271 1438v20h258l133 -127l131 127h260v-20l-207 -252h-368z" />
    <glyph glyph-name="napostrophe" unicode="&#x149;" horiz-adv-x="1444" 
d="M1317 0h-359v639q0 84 -26 122t-92 38q-103 0 -199 -144v-655h-358v1040h266l82 -155h10q62 74 109 108.5t103.5 54t131.5 19.5q332 0 332 -379v-688zM-86 1102q56 67 92.5 170t36.5 190h307q0 -95 -47.5 -195.5t-118.5 -164.5h-270z" />
    <glyph glyph-name="Omacron" unicode="&#x14c;" horiz-adv-x="1468" 
d="M1399 700q0 -352 -173 -536t-499 -184q-315 0 -487 181t-172 507q0 349 177 533.5t507 184.5q307 0 477 -180.5t170 -505.5zM995 680q0 220 -63 325t-193 105q-128 0 -198 -111t-70 -317q0 -207 66 -317.5t190 -110.5q141 0 204.5 110t63.5 316zM399 1693h666v-188h-666
v188z" />
    <glyph glyph-name="omacron" unicode="&#x14d;" horiz-adv-x="1235" 
d="M1161 522q0 -258 -144 -400t-413 -142q-259 0 -394.5 137t-135.5 389q0 275 141.5 418t417.5 143q259 0 393.5 -140t134.5 -405zM780 522q0 149 -38.5 225t-125.5 76q-163 0 -163 -305q0 -145 41 -221t122 -76q87 0 125.5 76t38.5 225zM282 1384h666v-188h-666v188z" />
    <glyph glyph-name="Obreve" unicode="&#x14e;" horiz-adv-x="1468" 
d="M1399 700q0 -352 -173 -536t-499 -184q-315 0 -487 181t-172 507q0 349 177 533.5t507 184.5q307 0 477 -180.5t170 -505.5zM995 680q0 220 -63 325t-193 105q-128 0 -198 -111t-70 -317q0 -207 66 -317.5t190 -110.5q141 0 204.5 110t63.5 316zM739 1474q-111 0 -198 42
t-135 116.5t-48 163.5v20h242q0 -60 38 -94.5t101 -34.5q60 0 99.5 37t39.5 92h242v-20q0 -91 -47 -165t-134 -115.5t-200 -41.5z" />
    <glyph glyph-name="obreve" unicode="&#x14f;" horiz-adv-x="1235" 
d="M1161 522q0 -258 -144 -400t-413 -142q-259 0 -394.5 137t-135.5 389q0 275 141.5 418t417.5 143q259 0 393.5 -140t134.5 -405zM780 522q0 149 -38.5 225t-125.5 76q-163 0 -163 -305q0 -145 41 -221t122 -76q87 0 125.5 76t38.5 225zM623 1165q-111 0 -198 42
t-135 116.5t-48 163.5v20h242q0 -60 38 -94.5t101 -34.5q60 0 99.5 37t39.5 92h242v-20q0 -91 -47 -165t-134 -115.5t-200 -41.5z" />
    <glyph glyph-name="Ohungarumlaut" unicode="&#x150;" horiz-adv-x="1468" 
d="M1399 700q0 -352 -173 -536t-499 -184q-315 0 -487 181t-172 507q0 349 177 533.5t507 184.5q307 0 477 -180.5t170 -505.5zM995 680q0 220 -63 325t-193 105q-128 0 -198 -111t-70 -317q0 -207 66 -317.5t190 -110.5q141 0 204.5 110t63.5 316zM1007 1779h324v-20
l-289 -254h-221v21zM588 1779h325v-20l-289 -254h-223v21z" />
    <glyph glyph-name="ohungarumlaut" unicode="&#x151;" horiz-adv-x="1235" 
d="M1161 522q0 -258 -144 -400t-413 -142q-259 0 -394.5 137t-135.5 389q0 275 141.5 418t417.5 143q259 0 393.5 -140t134.5 -405zM780 522q0 149 -38.5 225t-125.5 76q-163 0 -163 -305q0 -145 41 -221t122 -76q87 0 125.5 76t38.5 225zM880 1470h324v-20l-289 -254h-221
v21zM461 1470h325v-20l-289 -254h-223v21z" />
    <glyph glyph-name="OE" unicode="&#x152;" horiz-adv-x="1827" 
d="M752 1384q103 0 192 -18h819v-272h-518v-258h459v-273h-459v-293h518v-270h-833q-101 -18 -203 -18q-317 0 -488 180.5t-171 505.5q0 347 175.5 531.5t508.5 184.5zM727 256q65 0 119 23v811q-44 18 -107 18q-129 0 -198.5 -110.5t-69.5 -315.5q0 -206 65.5 -316
t190.5 -110z" />
    <glyph glyph-name="oe" unicode="&#x153;" horiz-adv-x="1872" 
d="M633 1067q211 0 340 -102q125 102 323 102q256 0 387.5 -134.5t131.5 -395.5v-109h-662q15 -108 80 -157.5t178 -49.5q71 0 136 10t200 50v-250q-97 -25 -211.5 -38t-218.5 -13q-222 0 -359 98q-135 -98 -354 -98q-259 0 -394.5 137t-135.5 389q0 275 141.5 418
t417.5 143zM780 522q0 149 -38.5 225t-125.5 76q-163 0 -163 -305q0 -145 41 -221t122 -76q87 0 125.5 76t38.5 225zM1329 825q-154 0 -180 -213h340q0 97 -43.5 155t-116.5 58z" />
    <glyph glyph-name="Racute" unicode="&#x154;" horiz-adv-x="1343" 
d="M555 508v-508h-399v1366h581q231 0 351 -109t120 -311q0 -133 -59 -230t-162 -149l367 -567h-420l-285 508h-94zM817 946q0 152 -153 152h-109v-322h84q178 0 178 170zM674 1769h408v-18l-371 -254h-272v20z" />
    <glyph glyph-name="racute" unicode="&#x155;" horiz-adv-x="872" 
d="M735 752q-77 0 -131.5 -26t-97.5 -79v-647h-359v1040h285l60 -166h8q67 112 123 152.5t122 40.5q61 0 105 -12v-314q-57 11 -115 11zM530 1460h408v-18l-371 -254h-272v20z" />
    <glyph glyph-name="Rcommaaccent" unicode="&#x156;" horiz-adv-x="1343" 
d="M555 508v-508h-399v1366h581q231 0 351 -109t120 -311q0 -133 -59 -230t-162 -149l367 -567h-420l-285 508h-94zM817 946q0 152 -153 152h-109v-322h84q178 0 178 170zM432 -477q56 67 92.5 168t36.5 190h309q0 -90 -44 -188.5t-121 -169.5h-273z" />
    <glyph glyph-name="rcommaaccent" unicode="&#x157;" horiz-adv-x="872" 
d="M735 752q-77 0 -131.5 -26t-97.5 -79v-647h-359v1040h285l60 -166h8q67 112 123 152.5t122 40.5q61 0 105 -12v-314q-57 11 -115 11zM49 -477q56 67 92.5 168t36.5 190h309q0 -90 -44 -188.5t-121 -169.5h-273z" />
    <glyph glyph-name="Rcaron" unicode="&#x158;" horiz-adv-x="1343" 
d="M555 508v-508h-399v1366h581q231 0 351 -109t120 -311q0 -133 -59 -230t-162 -149l367 -567h-420l-285 508h-94zM817 946q0 152 -153 152h-109v-322h84q178 0 178 170zM258 1747v20h258l133 -127l131 127h260v-20l-207 -252h-368z" />
    <glyph glyph-name="rcaron" unicode="&#x159;" horiz-adv-x="872" 
d="M735 752q-77 0 -131.5 -26t-97.5 -79v-647h-359v1040h285l60 -166h8q67 112 123 152.5t122 40.5q61 0 105 -12v-314q-57 11 -115 11zM123 1438v20h258l133 -127l131 127h260v-20l-207 -252h-368z" />
    <glyph glyph-name="Sacute" unicode="&#x15a;" horiz-adv-x="1210" 
d="M764 360q0 42 -26.5 68.5t-86 53.5t-162.5 59q-206 62 -301.5 166.5t-95.5 271.5q0 192 149 299.5t414 107.5q225 0 379 -59v-285q-173 78 -354 78q-108 0 -161.5 -23.5t-53.5 -74.5q0 -39 24 -63t82.5 -48.5t188.5 -64.5q194 -61 285.5 -164.5t91.5 -269.5
q0 -214 -153.5 -323t-453.5 -109q-270 0 -432 69v291q88 -40 201 -67t221 -27q126 0 185 28t59 86zM659 1769h408v-18l-371 -254h-272v20z" />
    <glyph glyph-name="sacute" unicode="&#x15b;" horiz-adv-x="1026" 
d="M94 731q0 158 121 247t344 89q186 0 342 -43v-238q-166 56 -299 56q-71 0 -112 -20t-41 -60q0 -23 14 -38t45 -28t194 -61q141 -37 204 -113.5t63 -191.5q0 -350 -502 -350q-205 0 -381 49v237q165 -59 324 -59q200 0 200 80q0 26 -13.5 41.5t-46.5 29.5t-163 50
q-157 40 -225 118.5t-68 204.5zM581 1460h408v-18l-371 -254h-272v20z" />
    <glyph glyph-name="Scircumflex" unicode="&#x15c;" horiz-adv-x="1210" 
d="M764 360q0 42 -26.5 68.5t-86 53.5t-162.5 59q-206 62 -301.5 166.5t-95.5 271.5q0 192 149 299.5t414 107.5q225 0 379 -59v-285q-173 78 -354 78q-108 0 -161.5 -23.5t-53.5 -74.5q0 -39 24 -63t82.5 -48.5t188.5 -64.5q194 -61 285.5 -164.5t91.5 -269.5
q0 -214 -153.5 -323t-453.5 -109q-270 0 -432 69v291q88 -40 201 -67t221 -27q126 0 185 28t59 86zM443 1769h368l207 -252v-20h-260l-131 127l-133 -127h-258v20z" />
    <glyph glyph-name="scircumflex" unicode="&#x15d;" horiz-adv-x="1026" 
d="M94 731q0 158 121 247t344 89q186 0 342 -43v-238q-166 56 -299 56q-71 0 -112 -20t-41 -60q0 -23 14 -38t45 -28t194 -61q141 -37 204 -113.5t63 -191.5q0 -350 -502 -350q-205 0 -381 49v237q165 -59 324 -59q200 0 200 80q0 26 -13.5 41.5t-46.5 29.5t-163 50
q-157 40 -225 118.5t-68 204.5zM340 1460h368l207 -252v-20h-260l-131 127l-133 -127h-258v20z" />
    <glyph glyph-name="Scedilla" unicode="&#x15e;" horiz-adv-x="1233" 
d="M494 -18q-114 0 -220 18t-170 49v258q213 -80 422 -80q126 0 185 30.5t59 98.5q0 49 -24 75t-79 50t-171 60q-207 62 -302.5 167t-95.5 271q0 192 151 299.5t427 107.5q89 0 187.5 -16t176.5 -43v-262q-83 33 -175.5 51.5t-166.5 18.5q-112 0 -169.5 -26.5t-57.5 -86.5
q0 -43 23 -66t81.5 -47.5t172.5 -58.5q208 -64 301.5 -166t93.5 -274q0 -181 -113 -287.5t-334 -132.5l-49 -70q96 -12 143.5 -59.5t47.5 -143.5q0 -108 -79 -164.5t-229 -56.5q-104 0 -194 37v160q92 -39 160 -39q59 0 83.5 16t24.5 49q0 42 -62.5 66t-170.5 37z" />
    <glyph glyph-name="scedilla" unicode="&#x15f;" horiz-adv-x="1026" 
d="M432 -20q-192 6 -346 49v227q151 -63 334 -63q190 0 190 75q0 33 -32.5 56.5t-106.5 46.5l-98 30q-148 46 -213.5 125t-65.5 205q0 158 121 247t344 89q62 0 165 -12t177 -31v-238q-166 56 -274 56q-87 0 -132.5 -21t-45.5 -59q0 -20 15 -36t48 -32t178 -67
q148 -52 213.5 -123.5t65.5 -184.5q0 -284 -332 -327l-49 -72q96 -12 142 -59.5t46 -143.5q0 -108 -78.5 -164.5t-228.5 -56.5q-101 0 -193 37v160q92 -39 158 -39q61 0 86 16t25 49q0 42 -63 66t-171 37z" />
    <glyph glyph-name="Scaron" unicode="&#x160;" horiz-adv-x="1210" 
d="M764 360q0 42 -26.5 68.5t-86 53.5t-162.5 59q-206 62 -301.5 166.5t-95.5 271.5q0 192 149 299.5t414 107.5q225 0 379 -59v-285q-173 78 -354 78q-108 0 -161.5 -23.5t-53.5 -74.5q0 -39 24 -63t82.5 -48.5t188.5 -64.5q194 -61 285.5 -164.5t91.5 -269.5
q0 -214 -153.5 -323t-453.5 -109q-270 0 -432 69v291q88 -40 201 -67t221 -27q126 0 185 28t59 86zM232 1747v20h258l133 -127l131 127h260v-20l-207 -252h-368z" />
    <glyph glyph-name="scaron" unicode="&#x161;" horiz-adv-x="1026" 
d="M94 731q0 158 121 247t344 89q186 0 342 -43v-238q-166 56 -299 56q-71 0 -112 -20t-41 -60q0 -23 14 -38t45 -28t194 -61q141 -37 204 -113.5t63 -191.5q0 -350 -502 -350q-205 0 -381 49v237q165 -59 324 -59q200 0 200 80q0 26 -13.5 41.5t-46.5 29.5t-163 50
q-157 40 -225 118.5t-68 204.5zM150 1438v20h258l133 -127l131 127h260v-20l-207 -252h-368z" />
    <glyph glyph-name="Tcommaaccent" unicode="&#x162;" horiz-adv-x="1190" 
d="M33 1366h1124v-301h-362v-1065h-400v1065h-362v301zM321 -477q56 67 92.5 168t36.5 190h309q0 -90 -44 -188.5t-121 -169.5h-273z" />
    <glyph glyph-name="tcommaaccent" unicode="&#x163;" horiz-adv-x="909" 
d="M588 1040h295v-245h-295v-420q0 -135 127 -135q61 0 141 14v-248q-121 -26 -291 -26q-336 0 -336 329v486h-196v188l198 57l88 252h269v-252zM233 -477q56 67 92.5 168t36.5 190h309q0 -90 -44 -188.5t-121 -169.5h-273z" />
    <glyph glyph-name="Tcaron" unicode="&#x164;" horiz-adv-x="1190" 
d="M33 1366h1124v-301h-362v-1065h-400v1065h-362v301zM201 1747v20h258l133 -127l131 127h260v-20l-207 -252h-368z" />
    <glyph glyph-name="tcaron" unicode="&#x165;" horiz-adv-x="909" 
d="M588 1038h295v-243h-295v-422q0 -133 127 -133q61 0 141 14v-248q-147 -26 -291 -26q-336 0 -336 327v488h-196v188l198 55l88 254h269v-254zM678 1133q56 67 92.5 168t36.5 190h309q0 -97 -49 -197t-119 -161h-270z" />
    <glyph glyph-name="Tbar" unicode="&#x166;" horiz-adv-x="1190" 
d="M33 1366h1124v-301h-362v-260h247v-242h-247v-563h-400v563h-266v242h266v260h-362v301z" />
    <glyph glyph-name="tbar" unicode="&#x167;" horiz-adv-x="909" 
d="M588 1040h295v-245h-295v-156h233v-205h-233v-59q0 -135 127 -135q61 0 141 14v-248q-114 -26 -291 -26q-336 0 -336 329v125h-133v205h133v156h-196v188l198 57l88 252h269v-252z" />
    <glyph glyph-name="Utilde" unicode="&#x168;" horiz-adv-x="1448" 
d="M727 -20q-283 0 -434.5 132t-151.5 384v870h400v-860q0 -199 184 -199q85 0 133.5 51.5t48.5 147.5v860h400v-870q0 -243 -155.5 -379.5t-424.5 -136.5zM869 1480q-37 0 -71 11.5t-103 52.5q-31 19 -51.5 29t-43.5 10q-69 0 -73 -103h-177q2 148 57 228t154 80
q49 0 84.5 -10t92.5 -46q30 -20 52.5 -33.5t47.5 -13.5t44 26.5t19 76.5h183q-2 -153 -57.5 -230.5t-157.5 -77.5z" />
    <glyph glyph-name="utilde" unicode="&#x169;" 
d="M1161 0h-268l-80 156h-10q-60 -72 -107 -105.5t-104.5 -52t-132.5 -18.5q-164 0 -248 89t-84 281v690h358v-632q0 -89 27 -128.5t92 -39.5q104 0 199 143v657h358v-1040zM818 1163q-37 0 -71 11.5t-103 52.5q-31 19 -51.5 29t-43.5 10q-69 0 -73 -103h-177q2 148 57 228
t154 80q49 0 84.5 -10t92.5 -46q30 -20 52.5 -33.5t47.5 -13.5t44 26.5t19 76.5h183q-2 -153 -57.5 -230.5t-157.5 -77.5z" />
    <glyph glyph-name="Umacron" unicode="&#x16a;" horiz-adv-x="1448" 
d="M727 -20q-283 0 -434.5 132t-151.5 384v870h400v-860q0 -199 184 -199q85 0 133.5 51.5t48.5 147.5v860h400v-870q0 -243 -155.5 -379.5t-424.5 -136.5zM381 1693h666v-188h-666v188z" />
    <glyph glyph-name="umacron" unicode="&#x16b;" 
d="M1161 0h-268l-80 156h-10q-60 -72 -107 -105.5t-104.5 -52t-132.5 -18.5q-164 0 -248 89t-84 281v690h358v-632q0 -89 27 -128.5t92 -39.5q104 0 199 143v657h358v-1040zM309 1384h666v-188h-666v188z" />
    <glyph glyph-name="Ubreve" unicode="&#x16c;" horiz-adv-x="1448" 
d="M727 -20q-283 0 -434.5 132t-151.5 384v870h400v-860q0 -199 184 -199q85 0 133.5 51.5t48.5 147.5v860h400v-870q0 -243 -155.5 -379.5t-424.5 -136.5zM715 1474q-111 0 -198 42t-135 116.5t-48 163.5v20h242q0 -60 38 -94.5t101 -34.5q60 0 99.5 37t39.5 92h242v-20
q0 -91 -47 -165t-134 -115.5t-200 -41.5z" />
    <glyph glyph-name="ubreve" unicode="&#x16d;" 
d="M1161 0h-268l-80 156h-10q-60 -72 -107 -105.5t-104.5 -52t-132.5 -18.5q-164 0 -248 89t-84 281v690h358v-632q0 -89 27 -128.5t92 -39.5q104 0 199 143v657h358v-1040zM647 1165q-111 0 -198 42t-135 116.5t-48 163.5v20h242q0 -60 38 -94.5t101 -34.5q60 0 99.5 37
t39.5 92h242v-20q0 -91 -47 -165t-134 -115.5t-200 -41.5z" />
    <glyph glyph-name="Uring" unicode="&#x16e;" horiz-adv-x="1448" 
d="M727 -20q-283 0 -434.5 132t-151.5 384v870h400v-860q0 -199 184 -199q85 0 133.5 51.5t48.5 147.5v860h400v-870q0 -243 -155.5 -379.5t-424.5 -136.5zM443 1728q0 114 80 192.5t192 78.5t192 -78.5t80 -192.5q0 -113 -79 -193.5t-193 -80.5q-113 0 -192.5 80t-79.5 194
zM797 1728q0 35 -24 58.5t-58 23.5q-35 0 -59.5 -24t-24.5 -58q0 -33 25 -58.5t59 -25.5q35 0 58.5 25t23.5 59z" />
    <glyph glyph-name="uring" unicode="&#x16f;" 
d="M1161 0h-268l-80 156h-10q-60 -72 -107 -105.5t-104.5 -52t-132.5 -18.5q-164 0 -248 89t-84 281v690h358v-632q0 -89 27 -128.5t92 -39.5q104 0 199 143v657h358v-1040zM375 1419q0 114 80 192.5t192 78.5t192 -78.5t80 -192.5q0 -113 -79 -193.5t-193 -80.5
q-113 0 -192.5 80t-79.5 194zM729 1419q0 35 -24 58.5t-58 23.5q-35 0 -59.5 -24t-24.5 -58q0 -33 25 -58.5t59 -25.5q35 0 58.5 25t23.5 59z" />
    <glyph glyph-name="Uhungarumlaut" unicode="&#x170;" horiz-adv-x="1448" 
d="M727 -20q-283 0 -434.5 132t-151.5 384v870h400v-860q0 -199 184 -199q85 0 133.5 51.5t48.5 147.5v860h400v-870q0 -243 -155.5 -379.5t-424.5 -136.5zM979 1779h324v-20l-289 -254h-221v21zM560 1779h325v-20l-289 -254h-223v21z" />
    <glyph glyph-name="uhungarumlaut" unicode="&#x171;" 
d="M1161 0h-268l-80 156h-10q-60 -72 -107 -105.5t-104.5 -52t-132.5 -18.5q-164 0 -248 89t-84 281v690h358v-632q0 -89 27 -128.5t92 -39.5q104 0 199 143v657h358v-1040zM895 1470h324v-20l-289 -254h-221v21zM476 1470h325v-20l-289 -254h-223v21z" />
    <glyph glyph-name="Uogonek" unicode="&#x172;" horiz-adv-x="1448" 
d="M727 -20q-283 0 -434.5 132t-151.5 384v870h400v-860q0 -199 184 -199q85 0 133.5 51.5t48.5 147.5v860h400v-870q0 -243 -155.5 -379.5t-424.5 -136.5zM850 -248q36 0 96 15v-195q-52 -12 -144 -12q-133 0 -204.5 59t-71.5 170q0 81 50.5 146.5t129.5 91.5l221 -23
q-78 -35 -125 -82.5t-47 -95.5q0 -35 25 -54.5t70 -19.5z" />
    <glyph glyph-name="uogonek" unicode="&#x173;" 
d="M1161 0h-268l-80 156h-10q-60 -72 -107 -105.5t-104.5 -52t-132.5 -18.5q-164 0 -248 89t-84 281v690h358v-632q0 -89 27 -128.5t92 -39.5q104 0 199 143v657h358v-1040zM1082 -248q36 0 96 15v-195q-52 -12 -144 -12q-133 0 -204.5 59t-71.5 170q0 81 50.5 146.5
t129.5 91.5l221 -23q-78 -35 -125 -82.5t-47 -95.5q0 -35 25 -54.5t70 -19.5z" />
    <glyph glyph-name="Wcircumflex" unicode="&#x174;" horiz-adv-x="1847" 
d="M924 909l-68 -383l-125 -526h-432l-311 1366h372l140 -647l55 -357l59 375l138 629h331l148 -627l59 -377l60 353l127 651h383l-312 -1366h-432l-123 522zM740 1769h368l207 -252v-20h-260l-131 127l-133 -127h-258v20z" />
    <glyph glyph-name="wcircumflex" unicode="&#x175;" horiz-adv-x="1620" 
d="M1626 1040l-262 -1040h-426l-94 465l-31 207l-31 -211l-96 -461h-426l-266 1040h344l104 -555l35 -237h8l22 122l19 119l123 551h332l115 -551l39 -241h8l26 177l115 615h342zM631 1460h368l207 -252v-20h-260l-131 127l-133 -127h-258v20z" />
    <glyph glyph-name="Ycircumflex" unicode="&#x176;" horiz-adv-x="1225" 
d="M412 514q-185 364 -426 852h420l153 -373l57 -194l56 192l155 375h412l-428 -852v-514h-399v514zM428 1769h368l207 -252v-20h-260l-131 127l-133 -127h-258v20z" />
    <glyph glyph-name="ycircumflex" unicode="&#x177;" horiz-adv-x="1135" 
d="M262 -492q-160 0 -272 25v248q105 -21 172 -21q153 0 200 138l27 69l-395 1073h360l168 -567q27 -90 41 -178h8q9 40 24.5 99t188.5 646h361l-410 -1112q-79 -215 -192.5 -317.5t-280.5 -102.5zM377 1460h368l207 -252v-20h-260l-131 127l-133 -127h-258v20z" />
    <glyph glyph-name="Ydieresis" unicode="&#x178;" horiz-adv-x="1225" 
d="M412 514q-185 364 -426 852h420l153 -373l57 -194l56 192l155 375h412l-428 -852v-514h-399v514zM252 1759h295v-264h-295v264zM678 1759h295v-264h-295v264z" />
    <glyph glyph-name="Zacute" unicode="&#x179;" horiz-adv-x="1223" 
d="M104 1366h1029v-233l-574 -816h604v-317h-1100v252l568 797h-527v317zM661 1769h408v-18l-371 -254h-272v20z" />
    <glyph glyph-name="zacute" unicode="&#x17a;" horiz-adv-x="1014" 
d="M969 0h-914v154l457 641h-420v245h844v-159l-430 -637h463v-244zM551 1460h408v-18l-371 -254h-272v20z" />
    <glyph glyph-name="Zdotaccent" unicode="&#x17b;" horiz-adv-x="1223" 
d="M104 1366h1029v-233l-574 -816h604v-317h-1100v252l568 797h-527v317zM445 1769h358v-231h-358v231z" />
    <glyph glyph-name="zdotaccent" unicode="&#x17c;" horiz-adv-x="1014" 
d="M969 0h-914v154l457 641h-420v245h844v-159l-430 -637h463v-244zM348 1460h358v-231h-358v231z" />
    <glyph glyph-name="Zcaron" unicode="&#x17d;" horiz-adv-x="1223" 
d="M104 1366h1029v-233l-574 -816h604v-317h-1100v252l568 797h-527v317zM230 1747v20h258l133 -127l131 127h260v-20l-207 -252h-368z" />
    <glyph glyph-name="zcaron" unicode="&#x17e;" horiz-adv-x="1014" 
d="M969 0h-914v154l457 641h-420v245h844v-159l-430 -637h463v-244zM129 1438v20h258l133 -127l131 127h260v-20l-207 -252h-368z" />
    <glyph glyph-name="florin" unicode="&#x192;" horiz-adv-x="1376" 
d="M383 -205q60 0 97.5 42.5t37.5 139.5v818h-192v188l96 29l96 26v21q0 209 103.5 311.5t314.5 102.5q130 0 223 -15v-250q-76 21 -141 21q-71 0 -106 -38t-35 -128v-25h264v-243h-264v-842q0 -189 -86.5 -292.5t-253.5 -109.5q-175 0 -293 29v234q65 -19 139 -19z" />
    <glyph glyph-name="Scommaaccent" unicode="&#x218;" horiz-adv-x="1210" 
d="M764 360q0 42 -26.5 68.5t-86 53.5t-162.5 59q-206 62 -301.5 166.5t-95.5 271.5q0 192 149 299.5t414 107.5q225 0 379 -59v-285q-173 78 -354 78q-108 0 -161.5 -23.5t-53.5 -74.5q0 -39 24 -63t82.5 -48.5t188.5 -64.5q194 -61 285.5 -164.5t91.5 -269.5
q0 -214 -153.5 -323t-453.5 -109q-270 0 -432 69v291q88 -40 201 -67t221 -27q126 0 185 28t59 86zM338 -477q56 67 92.5 168t36.5 190h309q0 -90 -44 -188.5t-121 -169.5h-273z" />
    <glyph glyph-name="scommaaccent" unicode="&#x219;" horiz-adv-x="1026" 
d="M94 731q0 158 121 247t344 89q186 0 342 -43v-238q-166 56 -299 56q-71 0 -112 -20t-41 -60q0 -23 14 -38t45 -28t194 -61q141 -37 204 -113.5t63 -191.5q0 -350 -502 -350q-205 0 -381 49v237q165 -59 324 -59q200 0 200 80q0 26 -13.5 41.5t-46.5 29.5t-163 50
q-157 40 -225 118.5t-68 204.5zM266 -477q56 67 92.5 168t36.5 190h309q0 -90 -44 -188.5t-121 -169.5h-273z" />
    <glyph glyph-name="uni0237" unicode="&#x237;" horiz-adv-x="653" 
d="M147 1040h359v-1155q0 -182 -88 -279.5t-250 -97.5q-158 0 -254 17v248q44 -11 113 -11q57 0 88.5 35.5t31.5 120.5v1122z" />
    <glyph glyph-name="circumflex" unicode="&#x2c6;" horiz-adv-x="1024" 
d="M328 1460h368l207 -252v-20h-260l-131 127l-133 -127h-258v20z" />
    <glyph glyph-name="caron" unicode="&#x2c7;" horiz-adv-x="1024" 
d="M121 1438v20h258l133 -127l131 127h260v-20l-207 -252h-368z" />
    <glyph glyph-name="uni02C9" unicode="&#x2c9;" horiz-adv-x="1024" 
d="M178 1384h666v-188h-666v188z" />
    <glyph glyph-name="breve" unicode="&#x2d8;" horiz-adv-x="1024" 
d="M512 1165q-111 0 -198 42t-135 116.5t-48 163.5v20h242q0 -60 38 -94.5t101 -34.5q60 0 99.5 37t39.5 92h242v-20q0 -91 -47 -165t-134 -115.5t-200 -41.5z" />
    <glyph glyph-name="dotaccent" unicode="&#x2d9;" horiz-adv-x="1024" 
d="M332 1460h358v-231h-358v231z" />
    <glyph glyph-name="ring" unicode="&#x2da;" horiz-adv-x="1024" 
d="M240 1419q0 114 80 192.5t192 78.5t192 -78.5t80 -192.5q0 -113 -79 -193.5t-193 -80.5q-113 0 -192.5 80t-79.5 194zM594 1419q0 35 -24 58.5t-58 23.5q-35 0 -59.5 -24t-24.5 -58q0 -33 25 -58.5t59 -25.5q35 0 58.5 25t23.5 59z" />
    <glyph glyph-name="ogonek" unicode="&#x2db;" horiz-adv-x="1024" 
d="M580 -248q36 0 96 15v-195q-52 -12 -144 -12q-133 0 -204.5 59t-71.5 170q0 81 50.5 146.5t129.5 91.5l221 -23q-78 -35 -125 -82.5t-47 -95.5q0 -35 25 -54.5t70 -19.5z" />
    <glyph glyph-name="tilde" unicode="&#x2dc;" horiz-adv-x="1024" 
d="M666 1171q-37 0 -71 11.5t-103 52.5q-31 19 -51.5 29t-43.5 10q-69 0 -73 -103h-177q2 148 57 228t154 80q49 0 84.5 -10t92.5 -46q30 -20 52.5 -33.5t47.5 -13.5t44 26.5t19 76.5h183q-2 -153 -57.5 -230.5t-157.5 -77.5z" />
    <glyph glyph-name="hungarumlaut" unicode="&#x2dd;" horiz-adv-x="1024" 
d="M698 1470h324v-20l-289 -254h-221v21zM279 1470h325v-20l-289 -254h-223v21z" />
    <glyph glyph-name="Delta" unicode="&#x394;" horiz-adv-x="1319" 
d="M1169 0h-1169l39 170l383 1196h475l422 -1323zM455 270h409l-151 557l-47 224h-7l-49 -224z" />
    <glyph glyph-name="Delta" unicode="&#x2206;" horiz-adv-x="1319" 
d="M1169 0h-1169l39 170l383 1196h475l422 -1323zM455 270h409l-151 557l-47 224h-7l-49 -224z" />
    <glyph glyph-name="Omega" unicode="&#x3a9;" horiz-adv-x="1522" 
d="M819 0v266q90 59 140.5 178.5t50.5 268.5q0 192 -65 294.5t-189 102.5t-194 -105.5t-70 -291.5q0 -156 56.5 -276.5t147.5 -170.5v-266h-651v270h266v21q-99 70 -161 197.5t-62 271.5q0 187 80.5 329.5t233.5 219.5t364 77q200 0 346.5 -77.5t223.5 -218.5t77 -328
q0 -145 -53 -265t-158 -206v-21h273v-270h-656z" />
    <glyph glyph-name="pi" unicode="&#x3c0;" horiz-adv-x="1542" 
d="M41 979l262 84h1153v-246h-221v-444q0 -71 23.5 -102t80.5 -31q45 0 107 14v-248q-45 -8 -97.5 -17t-121.5 -9q-186 0 -268 78t-82 257v502h-256v-817h-357v817h-223v162z" />
    <glyph glyph-name="endash" unicode="&#x2013;" horiz-adv-x="1178" 
d="M76 367v272h1024v-272h-1024z" />
    <glyph glyph-name="emdash" unicode="&#x2014;" horiz-adv-x="2202" 
d="M76 367v272h2048v-272h-2048z" />
    <glyph glyph-name="quoteleft" unicode="&#x2018;" horiz-adv-x="586" 
d="M532 1366q-52 -91 -90.5 -247t-38.5 -294h-321q0 125 52 271t142 270h256z" />
    <glyph glyph-name="quoteright" unicode="&#x2019;" horiz-adv-x="586" 
d="M51 825q56 101 92.5 255.5t36.5 285.5h322q0 -130 -53 -275.5t-142 -265.5h-256z" />
    <glyph glyph-name="quotesinglbase" unicode="&#x201a;" horiz-adv-x="586" 
d="M39 -272q57 103 93 258t36 282h321q0 -130 -54.5 -280t-139.5 -260h-256z" />
    <glyph glyph-name="quotedblleft" unicode="&#x201c;" horiz-adv-x="1026" 
d="M530 1366q-52 -91 -90.5 -247t-38.5 -294h-321q0 134 55.5 285t138.5 256h256zM991 1366q-53 -90 -91 -247.5t-38 -293.5h-321q0 129 54.5 279.5t139.5 261.5h256z" />
    <glyph glyph-name="quotedblright" unicode="&#x201d;" horiz-adv-x="1026" 
d="M496 825q52 94 90.5 249t38.5 292h321q0 -127 -51.5 -272.5t-142.5 -268.5h-256zM35 825q56 101 92.5 255.5t36.5 285.5h321q0 -126 -53.5 -274.5t-140.5 -266.5h-256z" />
    <glyph glyph-name="quotedblbase" unicode="&#x201e;" horiz-adv-x="1057" 
d="M39 -272q57 103 93 258t36 282h321q0 -130 -54.5 -280t-139.5 -260h-256zM510 -272q57 103 93 258t36 282h322q0 -131 -56.5 -282.5t-138.5 -257.5h-256z" />
    <glyph glyph-name="dagger" unicode="&#x2020;" horiz-adv-x="1434" 
d="M1270 717l-402 37l43 -1071h-391l45 1071l-403 -37v293l403 -39l-45 395h391l-43 -395l402 39v-293z" />
    <glyph glyph-name="daggerdbl" unicode="&#x2021;" horiz-adv-x="1434" 
d="M1270 39l-402 37l43 -393h-391l45 393l-403 -37v291l405 -35l45 227l-45 232l-405 -37v293q158 -17 403 -39l-45 395h391l-43 -395l402 39v-293l-406 37l-47 -232l47 -227l406 35v-291z" />
    <glyph glyph-name="bullet" unicode="&#x2022;" horiz-adv-x="920" 
d="M88 602q0 99 50 186t136 137t185 50q100 0 186 -50t135 -137.5t49 -185.5q0 -99 -49 -185t-135 -136t-186 -50q-99 0 -185.5 50.5t-136 136.5t-49.5 184z" />
    <glyph glyph-name="ellipsis" unicode="&#x2026;" horiz-adv-x="1962" 
d="M125 0v332h328v-332h-328zM807 0v332h328v-332h-328zM1485 0v332h327v-332h-327z" />
    <glyph glyph-name="perthousand" unicode="&#x2030;" horiz-adv-x="2404" 
d="M299 0l803 1366h274l-803 -1366h-274zM707 991q0 -181 -88.5 -285t-243.5 -104q-153 0 -235.5 97t-82.5 280q0 198 86.5 300.5t247.5 102.5q150 0 233 -100.5t83 -290.5zM475 991q0 93 -20.5 143t-71.5 50q-48 0 -71 -45.5t-23 -151.5q0 -104 22 -147t72 -43q46 0 69 45
t23 149zM1620 367q0 -178 -88.5 -282.5t-245.5 -104.5q-152 0 -233.5 97t-81.5 277q0 198 86.5 302t245.5 104q151 0 234 -100.5t83 -292.5zM1389 367q0 94 -21 144t-72 50q-48 0 -71 -46t-23 -153q0 -103 22.5 -145.5t71.5 -42.5q46 0 69.5 44t23.5 149zM2345 367
q0 -178 -88.5 -282.5t-245.5 -104.5q-153 0 -235 97t-82 277q0 198 87.5 302t246.5 104q151 0 234 -100.5t83 -292.5zM2114 367q0 94 -21 144t-74 50q-47 0 -69.5 -44.5t-22.5 -154.5q0 -103 22 -145.5t70 -42.5t71.5 44t23.5 149z" />
    <glyph glyph-name="guilsinglleft" unicode="&#x2039;" horiz-adv-x="621" 
d="M526 59l-434 351v258l434 352v-309l-204 -172l204 -170v-310z" />
    <glyph glyph-name="guilsinglright" unicode="&#x203a;" horiz-adv-x="621" 
d="M92 367l205 172l-205 170v309l434 -352v-256l-434 -353v310z" />
    <glyph glyph-name="fraction" unicode="&#x2044;" horiz-adv-x="317" 
d="M-381 0l803 1366h274l-802 -1366h-275z" />
    <glyph glyph-name="uni2074" unicode="&#x2074;" horiz-adv-x="854" 
d="M449 815v301q-36 -63 -74.5 -121t-75.5 -116l-51 -64h201zM674 1372v-557h155v-184h-155v-160h-225v160h-424v172l403 567v2h246z" />
    <glyph glyph-name="Euro" unicode="&#x20ac;" horiz-adv-x="1376" 
d="M258 604l-4 58l4 65h-143v193h176q63 218 221 342t377 124q188 0 352 -59v-305q-130 65 -276 65q-202 0 -279 -167h305v-193h-352l-2 -29q0 -78 2 -94h352v-192h-301q66 -140 244 -140q168 0 311 84v-301q-144 -75 -383 -75q-217 0 -367.5 114.5t-205.5 317.5h-174v192
h143z" />
    <glyph glyph-name="afii61289" unicode="&#x2113;" horiz-adv-x="823" 
d="M549 166q91 0 176 47v-182q-110 -51 -256 -51q-163 0 -241 77.5t-78 243.5v59l-150 -124v182l150 133v559q0 175 90 262.5t254 87.5q140 0 218.5 -81.5t78.5 -227.5q0 -96 -34.5 -181.5t-106 -172.5t-214.5 -211v-260q0 -82 27.5 -121t85.5 -39zM604 1141q0 69 -19 101
t-63 32q-86 0 -86 -141v-342q85 77 126.5 167t41.5 183z" />
    <glyph glyph-name="trademark" unicode="&#x2122;" horiz-adv-x="2134" 
d="M137 1368h746v-213h-238v-686h-268v686h-240v213zM1235 469h-260v899h323l105 -229l63 -183q8 11 52 148l10 31l106 233h316v-899h-262v420l8 170q-16 -31 -72 -184q-56 -154 -72 -185h-174l-151 369l8 -168v-422z" />
    <glyph glyph-name="uni2126" unicode="&#x2126;" horiz-adv-x="1522" 
d="M819 0v266q90 59 140.5 178.5t50.5 268.5q0 192 -65 294.5t-189 102.5t-194 -105.5t-70 -291.5q0 -156 56.5 -276.5t147.5 -170.5v-266h-651v270h266v21q-99 70 -161 197.5t-62 271.5q0 187 80.5 329.5t233.5 219.5t364 77q200 0 346.5 -77.5t223.5 -218.5t77 -328
q0 -145 -53 -265t-158 -206v-21h273v-270h-656z" />
    <glyph glyph-name="estimated" unicode="&#x212e;" horiz-adv-x="1229" 
d="M614 1053q156 0 276.5 -65t186.5 -188t66 -286v-49h-694v-289q61 -51 169 -51q118 0 198.5 55.5t129.5 165.5h166q-54 -173 -178.5 -269.5t-319.5 -96.5q-154 0 -274 65t-186 187t-66 282q0 247 144.5 393t381.5 146zM614 907q-102 0 -165 -49v-252h331v252
q-67 49 -166 49z" />
    <glyph glyph-name="partialdiff" unicode="&#x2202;" horiz-adv-x="1257" 
d="M588 -20q-142 0 -252 57.5t-172 168t-62 259.5q0 154 56 267t158.5 175t232.5 62q132 0 246 -109h10l2 62q0 104 -63 170.5t-169 66.5q-123 0 -251 -72h-9v254q63 25 145 42.5t158 17.5q256 0 393.5 -162.5t137.5 -462.5q-6 -376 -155 -586t-406 -210zM598 238
q85 0 132 97t61 310q-78 82 -156 82q-82 0 -127 -70.5t-45 -195.5q0 -105 36.5 -164t98.5 -59z" />
    <glyph glyph-name="product" unicode="&#x220f;" horiz-adv-x="1419" 
d="M1264 -317h-392v1505h-325v-1505h-391v1777h1108v-1777z" />
    <glyph glyph-name="summation" unicode="&#x2211;" horiz-adv-x="1141" 
d="M494 612l-433 660v188h1012v-272h-555l363 -557v-8l-387 -670h581v-270h-1014v176z" />
    <glyph glyph-name="minus" unicode="&#x2212;" horiz-adv-x="1434" 
d="M1239 516h-1046v272h1046v-272z" />
    <glyph glyph-name="uni2215" unicode="&#x2215;" horiz-adv-x="317" 
d="M-381 0l803 1366h274l-802 -1366h-275z" />
    <glyph glyph-name="radical" unicode="&#x221a;" horiz-adv-x="1296" 
d="M819 -35h-385l-186 520h-234v258h486l80 -288l23 -98l13 -72h9q14 61 19 82.5t345 1213.5h357z" />
    <glyph glyph-name="infinity" unicode="&#x221e;" horiz-adv-x="1980" 
d="M1913 586q0 -135 -61.5 -244t-173.5 -170t-255 -61q-142 0 -250.5 66t-193.5 200q-190 -262 -420 -262q-235 0 -363 123.5t-128 351.5q0 132 61 242t169 171.5t245 61.5q287 0 454 -264q89 123 196 192.5t243 69.5q225 0 351 -126.5t126 -350.5zM1579 588q0 92 -51.5 146
t-132.5 54q-71 0 -124.5 -41.5t-115.5 -150.5q43 -105 105 -160t137 -55q80 0 131 57t51 150zM586 387q63 0 120 44.5t117 148.5q-97 215 -239 215q-82 0 -131.5 -56t-49.5 -151q0 -91 50.5 -146t132.5 -55z" />
    <glyph glyph-name="integral" unicode="&#x222b;" horiz-adv-x="932" 
d="M287 1085q0 206 100 304t301 98q55 0 122.5 -9t109.5 -20v-250q-60 19 -140 19q-60 0 -97.5 -41.5t-37.5 -138.5v-1000q0 -206 -100 -303.5t-299 -97.5q-122 0 -234 28v250q68 -18 140 -18q58 0 96.5 42.5t38.5 137.5v999z" />
    <glyph glyph-name="approxequal" unicode="&#x2248;" horiz-adv-x="1434" 
d="M940 711q-67 0 -128 23.5t-157 90.5q-71 52 -120 52q-41 0 -69.5 -41.5t-31.5 -124.5h-272q2 217 86.5 331.5t243.5 114.5q55 0 110.5 -18t155.5 -78q48 -29 85 -49.5t68 -20.5q48 0 66 40t20 126h275q-2 -218 -86 -332t-246 -114zM940 154q-67 0 -128 23.5t-157 90.5
q-69 51 -120 51q-41 0 -69.5 -41t-31.5 -124h-272q2 217 86.5 331.5t243.5 114.5q55 0 110.5 -18t155.5 -78q48 -29 85 -49.5t68 -20.5q48 0 66 40t20 126h275q-2 -218 -86 -332t-246 -114z" />
    <glyph glyph-name="notequal" unicode="&#x2260;" horiz-adv-x="1434" 
d="M393 68l66 213h-266v272h350l65 215h-415v272h501l56 179h274l-55 -179h270v-272h-354l-66 -215h420v-272h-504l-65 -213h-277z" />
    <glyph glyph-name="lessequal" unicode="&#x2264;" horiz-adv-x="1434" 
d="M1239 1491v-324l-639 -295l639 -280v-318l-1046 486v231zM1239 -49h-1046v272h1046v-272z" />
    <glyph glyph-name="greaterequal" unicode="&#x2265;" horiz-adv-x="1434" 
d="M1239 -49h-1046v272h1046v-272zM1239 989v-231l-1046 -484v318l638 280l-638 295v324z" />
    <glyph glyph-name="lozenge" unicode="&#x25ca;" horiz-adv-x="1208" 
d="M35 682l432 684h274l433 -684l-433 -682h-274zM799 688q-61 100 -211 359q-29 -66 -37 -74l-174 -285l192 -311l21 -41l16 33l17 30z" />
    <glyph glyph-name="uniFB01" unicode="&#xfb01;" horiz-adv-x="1540" 
d="M586 0h-359v795h-192v188l96 29l96 26v21q0 414 418 414q106 0 223 -19v-246q-76 21 -141 21q-69 0 -105 -40.5t-36 -111.5v-39h264v-243h-264v-795zM1034 1460h359v-231h-359v231zM1393 0h-359v1040h359v-1040z" />
    <glyph glyph-name="uniFB02" unicode="&#xfb02;" horiz-adv-x="1628" 
d="M586 0h-359v795h-192v188l96 29l96 26v21q0 414 418 414q106 0 223 -19v-246q-76 21 -141 21q-69 0 -105 -40.5t-36 -111.5v-39h264v-243h-264v-795zM1385 373q0 -133 127 -133q45 0 106 8v-248q-40 -9 -117 -14.5t-141 -5.5q-334 0 -334 335v1145h359v-1087z" />
    <glyph glyph-name="glyph363" horiz-adv-x="532" 
d="M500 1470q-53 -62 -90 -164.5t-37 -195.5h-307q0 99 48.5 201t114.5 159h271z" />
    <glyph glyph-name="glyph364" horiz-adv-x="532" 
d="M49 -477q56 67 92.5 168t36.5 190h309q0 -90 -44 -188.5t-121 -169.5h-273z" />
    <glyph glyph-name="glyph369" horiz-adv-x="0" 
 />
    </font>
</defs>
</svg>
